<?xml version="1.0" encoding="UTF-8"?>
<!DOCTYPE svg PUBLIC "-//W3C//DTD SVG 1.1//EN" "http://www.w3.org/Graphics/SVG/1.1/DTD/svg11.dtd">
<!-- Creator: CorelDRAW X7 -->
<svg xmlns="http://www.w3.org/2000/svg" xml:space="preserve" width="3000px" height="3000px" version="1.1" style="shape-rendering:geometricPrecision; text-rendering:geometricPrecision; image-rendering:optimizeQuality; fill-rule:evenodd; clip-rule:evenodd"
viewBox="0 0 3000 3000"
 xmlns:xlink="http://www.w3.org/1999/xlink">
 <defs>
  <style type="text/css">
   <![CDATA[
    .str0 {stroke:black;stroke-width:0.9}
    .fil7 {fill:none}
    .fil3 {fill:#FEFEFE}
    .fil9 {fill:#332C2B}
    .fil6 {fill:#FFF000}
    .fil8 {fill:#F08519}
    .fil5 {fill:#5C2D22}
    .fil1 {fill:#E62129}
    .fil2 {fill:#00A2E9}
    .fil4 {fill:#009B4C}
    .fil12 {fill:#1D1819}
    .fil0 {fill:black}
    .fil10 {fill:#014720}
    .fil13 {fill:#1D1819;fill-rule:nonzero}
    .fil11 {fill:black;fill-rule:nonzero}
   ]]>
  </style>
     <clipPath id="id0">
      <path d="M1451 2138c0,0 -35,-31 -41,-43 -6,-12 1,-55 22,-74 21,-20 59,-42 89,-27 30,15 70,44 73,53 3,9 7,28 7,28 -22,14 -45,22 -52,56 -17,-3 -36,-3 -53,-2 -41,3 -62,18 -83,42 -21,23 -26,95 -26,106 0,2 1,5 4,9 -10,-3 -33,-11 -51,-23 -21,-14 -45,-24 -47,-33 -5,-21 5,-69 25,-93 20,-24 25,-32 49,-34 23,-2 38,-5 38,-5l46 40zm-2 65c-1,1 -3,3 -4,4 3,-9 6,-16 9,-18 10,-7 38,-31 63,-28 48,6 76,62 60,97 -8,16 -51,51 -51,51l-2 -5c6,-4 16,-8 23,-19 -9,9 -22,14 -36,14 -20,0 -47,-9 -63,-24 4,6 8,10 14,15 5,5 54,15 64,19 -9,6 -40,2 -59,-5 -38,-15 -40,-75 -18,-101zm106 11c1,2 2,5 4,8 -1,-4 -3,-6 -4,-8zm-97 -20c5,-3 12,-5 19,-7l-2 1c-6,0 -12,3 -17,6zm91 -63c3,-3 64,-72 116,-58 15,4 51,43 57,67 7,24 6,55 -6,75 -12,19 -21,34 -37,38 -11,4 -31,-2 -42,-5 -2,-25 -16,-51 -28,-76 -12,-25 -35,-36 -60,-41zm88 119c18,12 59,40 63,51 5,15 15,42 -1,57 -17,15 -43,45 -52,53 -9,9 -34,36 -61,31 -12,-2 -24,-12 -37,-14 -23,-4 -28,-41 -30,-57 3,0 6,0 8,0 7,0 58,-42 93,-76 14,-13 18,-28 17,-45zm-118 121c-1,16 -4,49 -14,55 -9,6 -18,14 -26,16 -17,4 -25,17 -69,-6 -43,-22 -98,-70 -96,-88 3,-18 2,-49 18,-56 13,-5 48,-5 60,-5 9,11 31,27 53,39 29,17 59,44 59,44 0,0 8,1 15,1zm-14 -12c0,0 -27,-25 -54,-40 -27,-14 -53,-35 -53,-45 0,-10 5,-75 24,-96 19,-21 38,-35 75,-38 38,-3 84,1 103,39 19,39 41,82 10,112 -32,30 -78,69 -85,69 -6,1 -20,-1 -20,-1z"/>
     </clipPath>
 </defs>
 <g id="Layer_x0020_1">
  <metadata id="CorelCorpID_0Corel-Layer"/>
  <g id="_2169651664768">
   <path class="fil0" d="M2142 100l-2 0 -1267 0 -2 0c-2,6 -3,11 -5,17 -79,186 -281,201 -402,196l-4 0 0 0 -4 0 -2 1127c-18,656 388,1235 1101,1197 490,-27 1007,-383 1003,-1197l-2 -1127 -4 0 0 0 -3 0c-121,5 -324,-10 -403,-196 -1,-6 -3,-11 -4,-17z"/>
   <path class="fil1" d="M2121 127l-1230 0c-71,169 -237,216 -404,214l0 1 -4 0 -2 1099c-9,335 96,687 346,920 200,187 456,263 726,249 252,-14 492,-114 669,-295 229,-234 310,-555 309,-875l-2 -1098 -5 0 0 -1c-166,2 -332,-46 -403,-214zm-13 21l-1204 0c-73,158 -231,211 -396,214l0 1 -4 0 -2 1078c-9,329 94,676 339,906 196,182 447,257 711,242 246,-13 482,-111 655,-288 225,-231 304,-547 304,-861l-2 -1077 -6 0 0 -1c-165,-3 -321,-56 -395,-214z"/>
   <path class="fil2 str0" d="M2100 161l-1187 0c-76,155 -230,209 -392,214l0 2 -4 0 -2 1064 0 1c-9,325 93,668 336,895 192,180 439,253 700,239 243,-13 476,-110 646,-285 223,-227 301,-540 300,-851l-2 -1063 -6 0 0 -2c-161,-6 -314,-60 -389,-214z"/>
   <path class="fil0" d="M543 1771c4,21 8,44 17,60 20,4 24,28 67,32 52,5 56,-31 86,-32 32,-1 26,39 104,32l0 -2c16,-8 43,-29 59,-30 27,-1 27,28 74,32 52,5 56,-31 86,-32 30,-1 50,46 96,30l0 1c1,-1 2,-1 3,-2 1,-1 3,-1 5,-2l0 -1c16,-10 38,-26 52,-26 27,-1 27,28 74,32 52,5 55,-31 85,-32 32,-1 27,39 105,32l0 -2c16,-8 43,-29 59,-30 27,-1 27,28 74,32 52,5 55,-31 85,-32 31,-1 51,48 99,29 0,3 47,-29 60,-29 27,-1 27,28 74,32 52,5 56,-31 86,-32 32,-1 26,39 104,32l0 -2c16,-8 43,-29 59,-30 27,-1 27,28 74,32 52,5 55,-31 86,-32 30,-1 50,46 96,30l0 1c0,-1 1,-1 2,-2 2,-1 4,-1 6,-2l0 -1c8,-5 20,-13 29,-18 6,-24 11,-48 16,-72 -10,11 -17,17 -22,23 -6,6 -18,11 -27,11 -33,-4 -39,-76 34,-68 -3,-10 -46,-26 -68,-24 -21,3 -84,69 -96,81 -7,9 -23,10 -33,10 -30,-8 -33,-75 37,-67 -3,-10 -45,-26 -67,-24 -22,3 -86,71 -96,81 -8,9 -18,11 -26,11l0 0c-1,0 -2,0 -3,0l-2 0 0 0c-35,0 -44,-76 31,-68 -3,-10 -46,-26 -67,-24 -22,3 -84,69 -96,81 -8,9 -24,10 -34,10 -30,-8 -33,-75 37,-67 -3,-10 -45,-26 -67,-24 -22,3 -86,71 -96,81 -9,10 -20,11 -29,11 -33,-3 -40,-76 33,-68 -3,-10 -45,-26 -67,-24 -22,3 -84,69 -96,81 -8,9 -24,10 -34,10 -29,-8 -32,-75 38,-67 -3,-10 -46,-26 -68,-24 -21,3 -86,71 -95,81 -9,9 -18,11 -27,11l0 0c0,0 -1,0 -2,0l-2 0 0 0c-36,0 -44,-76 31,-68 -3,-10 -46,-26 -68,-24 -22,3 -84,69 -96,81 -8,9 -24,10 -33,10 -30,-8 -33,-75 37,-67 -3,-10 -46,-26 -67,-24 -22,3 -87,71 -96,81 -9,9 -18,11 -27,11 -33,-4 -39,-76 34,-68 -3,-10 -46,-26 -68,-24 -21,3 -83,69 -95,81 -8,9 -24,10 -34,10 -30,-8 -33,-75 37,-67 -3,-10 -45,-26 -67,-24 -22,3 -86,71 -96,81 -8,9 -17,11 -26,11l0 0c-1,0 -2,0 -3,0l-2 0 0 0c-35,0 -44,-76 31,-68 -3,-10 -46,-26 -67,-24 -22,3 -84,69 -96,81 -8,9 -24,10 -34,10 -30,-8 -33,-75 38,-67 -3,-10 -49,-26 -68,-24 -18,3 -53,38 -77,62z"/>
   <path class="fil3" d="M1775 1725c-12,-4 -26,-6 -33,-5 -16,1 -75,62 -90,77 -9,11 -27,13 -40,13l-2 0 -1 0c-36,-10 -40,-70 7,-85 -13,-4 -27,-6 -33,-5 -17,1 -77,63 -90,77 -9,10 -20,13 -33,14l-12 1 0 -1c-37,-6 -44,-71 5,-86 -13,-4 -27,-6 -34,-5 -16,1 -75,62 -89,77 -10,11 -27,13 -41,13l-2 0 -1 0c-36,-10 -40,-70 7,-85 -13,-4 -27,-6 -33,-5 -17,1 -77,63 -90,77 -9,10 -20,14 -34,14l0 0 -1 0c-40,-5 -47,-71 2,-86 -13,-4 -27,-6 -33,-5 -17,1 -76,62 -90,77 -10,11 -27,13 -41,13l-1 0 -2 0c-36,-10 -40,-70 8,-85 -13,-4 -27,-6 -34,-5 -16,1 -76,63 -90,77 -9,10 -20,13 -33,14l-11 1 0 -1c-38,-6 -45,-71 4,-86 -13,-4 -27,-6 -33,-5 -17,1 -76,62 -90,77 -10,11 -27,13 -41,13l-1 0 -2 0c-35,-10 -39,-70 8,-85 -13,-4 -27,-6 -34,-5 -12,1 -49,37 -64,52 3,17 7,34 11,51 20,7 26,27 60,30 47,4 49,-31 85,-32 7,-1 14,1 20,4 10,6 18,15 28,20 14,8 33,9 50,8l2 -1c18,-9 43,-30 63,-31 30,-2 36,28 75,32 47,4 49,-31 84,-32 36,-2 54,44 93,31l2 -1 0 0 1 0 4 -3c15,-9 39,-27 57,-27 30,-2 35,28 75,32 47,4 49,-31 84,-32 8,-1 14,1 21,4 10,6 17,15 27,20 15,8 33,9 50,8l2 -1c18,-9 43,-30 63,-31 30,-2 36,28 76,32 47,4 49,-31 84,-32 36,-2 53,46 95,30l9 -4c17,-10 38,-26 55,-26 30,-2 36,28 75,32 47,4 49,-31 84,-32 8,-1 15,1 21,4 10,6 17,15 28,20 14,8 33,9 50,8l1 -1c18,-9 44,-30 64,-31 30,-2 36,28 75,32 47,4 49,-31 84,-32 36,-2 53,44 93,31l2 -1 0 0 1 0 4 -3c8,-5 15,-10 24,-14 2,-11 5,-22 7,-33 -8,7 -18,10 -30,10l-1 0 0 0c-40,-5 -47,-71 2,-86 -13,-4 -27,-6 -34,-5 -16,1 -75,62 -89,77 -10,11 -27,13 -41,13l-2 0 -1 0c-36,-10 -40,-70 7,-85 -12,-4 -27,-6 -33,-5 -16,1 -76,63 -90,77 -9,10 -20,13 -33,14l-11 1 0 -1c-38,-6 -45,-71 4,-86 -13,-4 -27,-6 -33,-5 -17,1 -76,62 -90,77 -10,11 -27,13 -41,13l-1 0 -2 0c-36,-10 -39,-70 8,-85 -13,-4 -27,-6 -34,-5 -16,1 -76,63 -89,77 -11,11 -22,14 -37,14l0 0 -1 0c-41,-4 -48,-71 1,-86z"/>
   <path class="fil0" d="M516 1157l-1 284 0 1c-2,70 2,142 10,212l1959 0c9,-70 13,-142 13,-214l0 -284c-138,-50 -283,-98 -425,-134 -57,-14 -117,-11 -174,-1 -62,12 -123,33 -181,58 -40,17 -78,36 -117,54 -105,45 -224,74 -338,59 -110,-14 -225,-37 -334,-60 -94,-19 -194,-18 -289,-4 -40,7 -84,16 -123,29z"/>
   <path class="fil4" d="M516 1174c0,0 198,-69 409,-25 211,43 335,60 335,60 -78,19 -275,102 -199,74 169,-61 394,-69 545,-135 69,-30 286,-153 462,-109 175,43 429,135 429,135l0 209 -26 0 0 -51 -145 0 0 51 -58 0 0 -51 -145 0 0 51 -55 0 0 -51 -145 0 0 51 -65 0 0 -51 -145 0 0 51 -57 0 0 -51 -145 0 0 51 -53 0 0 -51 -145 0 0 51 -32 0 0 -51 -146 0 0 51 -51 0 0 -51 -145 0 0 51 -59 0 0 -51 -146 0 0 51 -49 0 0 -51 -145 0 0 51 -34 0 10 -209z"/>
   <path class="fil5" d="M582 1252c55,-112 135,-228 195,-318l12 22c-97,147 -213,377 -234,450l-40 -1c17,-29 43,-105 67,-153z"/>
   <g>
    <g>
     <g>
      <g>
       <g>
        <polygon class="fil6" points="532,1522 594,1522 594,1642 532,1642 "/>
        <polygon class="fil6" points="612,1522 674,1522 674,1642 612,1642 "/>
       </g>
       <g>
        <polygon class="fil6" points="688,1522 750,1522 750,1642 688,1642 "/>
        <polygon class="fil6" points="768,1522 830,1522 830,1642 768,1642 "/>
       </g>
      </g>
      <g>
       <g>
        <polygon class="fil6" points="844,1522 906,1522 906,1642 844,1642 "/>
        <polygon class="fil6" points="924,1522 986,1522 986,1642 924,1642 "/>
       </g>
       <g>
        <polygon class="fil6" points="1000,1522 1062,1522 1062,1642 1000,1642 "/>
        <polygon class="fil6" points="1080,1522 1142,1522 1142,1642 1080,1642 "/>
       </g>
      </g>
     </g>
     <g>
      <g>
       <g>
        <polygon class="fil6" points="1157,1522 1219,1522 1219,1642 1157,1642 "/>
        <polygon class="fil6" points="1237,1522 1299,1522 1299,1642 1237,1642 "/>
       </g>
       <g>
        <polygon class="fil6" points="1313,1522 1375,1522 1375,1642 1313,1642 "/>
        <polygon class="fil6" points="1393,1522 1455,1522 1455,1642 1393,1642 "/>
       </g>
      </g>
      <g>
       <g>
        <polygon class="fil6" points="1470,1522 1532,1522 1532,1642 1470,1642 "/>
        <polygon class="fil6" points="1550,1522 1612,1522 1612,1642 1550,1642 "/>
       </g>
       <g>
        <polygon class="fil6" points="1626,1522 1688,1522 1688,1642 1626,1642 "/>
        <polygon class="fil6" points="1706,1522 1768,1522 1768,1642 1706,1642 "/>
       </g>
      </g>
     </g>
    </g>
    <g>
     <g>
      <g>
       <polygon class="fil6" points="1786,1522 1848,1522 1848,1642 1786,1642 "/>
       <polygon class="fil6" points="1866,1522 1928,1522 1928,1642 1866,1642 "/>
      </g>
      <g>
       <polygon class="fil6" points="1942,1522 2004,1522 2004,1642 1942,1642 "/>
       <polygon class="fil6" points="2022,1522 2084,1522 2084,1642 2022,1642 "/>
      </g>
     </g>
     <g>
      <g>
       <polygon class="fil6" points="2099,1522 2161,1522 2161,1642 2099,1642 "/>
       <polygon class="fil6" points="2179,1522 2241,1522 2241,1642 2179,1642 "/>
      </g>
      <g>
       <polygon class="fil6" points="2255,1522 2317,1522 2317,1642 2255,1642 "/>
       <polygon class="fil6" points="2335,1522 2397,1522 2397,1642 2335,1642 "/>
       <polygon class="fil6" points="2415,1522 2477,1522 2477,1642 2415,1642 "/>
      </g>
     </g>
    </g>
   </g>
   <g>
    <path class="fil0" d="M1613 2066c18,-7 38,-11 56,-6 24,7 60,53 67,77 7,26 6,61 -9,85 -11,17 -22,38 -43,44 14,11 26,23 29,31 8,23 16,51 -5,71 -19,16 -34,37 -52,54 -20,18 -42,39 -72,34 -14,-3 -25,-13 -38,-15 -10,-2 -18,-8 -24,-16 -2,6 -6,10 -10,13 -10,6 -18,15 -30,17 -3,1 -5,2 -8,3 -27,10 -45,3 -70,-10 -28,-14 -107,-68 -103,-102 3,-22 1,-56 25,-66 3,-1 6,-2 10,-3 -1,-1 -2,-2 -4,-2 -14,-10 -49,-25 -53,-42 -7,-29 9,-82 28,-105 19,-22 28,-36 58,-39 10,0 19,-2 29,-3 -2,-25 13,-61 29,-75 26,-24 69,-47 104,-29 19,9 74,42 80,61 2,7 4,15 6,23z"/>
    <path class="fil1" d="M1451 2138c0,0 -35,-31 -41,-43 -6,-12 1,-55 22,-74 21,-20 59,-42 89,-27 30,15 70,44 73,53 3,9 7,28 7,28 -22,14 -45,22 -52,56 -17,-3 -36,-3 -53,-2 -41,3 -62,18 -83,42 -21,23 -26,95 -26,106 0,2 1,5 4,9 -10,-3 -33,-11 -51,-23 -21,-14 -45,-24 -47,-33 -5,-21 5,-69 25,-93 20,-24 25,-32 49,-34 23,-2 38,-5 38,-5l46 40zm-2 65c-1,1 -3,3 -4,4 3,-9 6,-16 9,-18 10,-7 38,-31 63,-28 48,6 76,62 60,97 -8,16 -51,51 -51,51l-2 -5c6,-4 16,-8 23,-19 -9,9 -22,14 -36,14 -20,0 -47,-9 -63,-24 4,6 8,10 14,15 5,5 54,15 64,19 -9,6 -40,2 -59,-5 -38,-15 -40,-75 -18,-101zm106 11c1,2 2,5 4,8 -1,-4 -3,-6 -4,-8zm-97 -20c5,-3 12,-5 19,-7l-2 1c-6,0 -12,3 -17,6zm91 -63c3,-3 64,-72 116,-58 15,4 51,43 57,67 7,24 6,55 -6,75 -12,19 -21,34 -37,38 -11,4 -31,-2 -42,-5 -2,-25 -16,-51 -28,-76 -12,-25 -35,-36 -60,-41zm88 119c18,12 59,40 63,51 5,15 15,42 -1,57 -17,15 -43,45 -52,53 -9,9 -34,36 -61,31 -12,-2 -24,-12 -37,-14 -23,-4 -28,-41 -30,-57 3,0 6,0 8,0 7,0 58,-42 93,-76 14,-13 18,-28 17,-45zm-118 121c-1,16 -4,49 -14,55 -9,6 -18,14 -26,16 -17,4 -25,17 -69,-6 -43,-22 -98,-70 -96,-88 3,-18 2,-49 18,-56 13,-5 48,-5 60,-5 9,11 31,27 53,39 29,17 59,44 59,44 0,0 8,1 15,1zm-14 -12c0,0 -27,-25 -54,-40 -27,-14 -53,-35 -53,-45 0,-10 5,-75 24,-96 19,-21 38,-35 75,-38 38,-3 84,1 103,39 19,39 41,82 10,112 -32,30 -78,69 -85,69 -6,1 -20,-1 -20,-1z"/>
    <g style="clip-path:url(#id0)">
     <g>
      <path id="1" class="fil3" d="M1320 2210c4,0 8,3 8,8 0,4 -4,7 -8,7 -5,0 -8,-3 -8,-7 0,-5 3,-8 8,-8zm107 19c1,2 1,3 1,5 0,4 -4,8 -8,8 3,1 6,4 6,9 0,4 -4,8 -8,8 -5,0 -9,-4 -9,-8 0,-5 4,-9 9,-9 -4,-1 -7,-4 -7,-8 0,-3 1,-5 3,-7 -1,-1 -1,-3 -1,-4 0,-5 4,-9 8,-9 5,0 9,4 9,9 0,3 -1,5 -3,6zm-5 -36c5,0 9,4 9,9 0,4 -4,8 -9,8 -4,0 -8,-4 -8,-8 0,-5 4,-9 8,-9zm28 -14c3,1 5,4 5,8 0,5 -3,9 -8,9 -4,0 -7,-3 -8,-7 -2,3 -5,5 -8,5 -5,0 -9,-4 -9,-9 0,-5 4,-8 9,-8 4,0 7,2 8,6 1,-1 1,-2 2,-2 -3,-1 -6,-5 -6,-9 0,-4 3,-8 8,-8l0 -1c0,-5 4,-9 8,-9 4,0 7,3 9,7 0,-2 1,-3 3,-4 0,0 0,-1 0,-2 0,-5 3,-9 8,-9 4,0 7,3 8,6 2,-2 5,-4 8,-4 2,0 5,1 6,3 0,-1 0,-1 0,-1 0,-5 4,-9 9,-9 3,0 5,1 7,4 1,-2 4,-4 6,-4 3,0 5,1 6,3 2,0 3,1 3,2 2,-2 4,-3 7,-3 3,0 6,2 8,5 0,0 1,0 2,0 3,0 6,1 7,3 2,-2 4,-3 7,-3 4,0 7,2 8,6 2,0 4,2 5,3 2,-2 4,-3 7,-3 5,0 8,4 8,9 0,2 0,3 -1,5 0,0 1,0 2,0 4,0 8,3 8,8 0,4 -2,7 -5,8 0,0 1,1 1,1 1,-2 4,-3 6,-3 5,0 9,4 9,9 0,3 -2,7 -6,8 3,1 5,4 5,8 0,4 -4,8 -8,8 -5,0 -9,-4 -9,-8 0,-4 3,-7 6,-9 -1,0 -3,-1 -3,-2 -2,2 -4,3 -7,3 -5,0 -9,-4 -9,-9 0,-3 2,-6 6,-8 -1,0 -1,0 -1,-1 -2,2 -4,3 -7,3 -5,0 -9,-3 -9,-8 0,-2 1,-4 2,-5 -1,0 -1,0 -2,0 -4,0 -7,-3 -8,-6 -2,-1 -4,-2 -5,-3 -2,2 -4,3 -7,3 -3,0 -6,-2 -7,-5 -1,0 -2,0 -3,0 -3,0 -5,-1 -7,-3 -2,2 -4,3 -7,3 -2,0 -4,-1 -6,-2 -1,-1 -2,-2 -3,-3 -1,2 -4,3 -6,3 -3,0 -5,-1 -7,-2 0,0 0,0 0,1 0,4 -3,8 -8,8 -4,0 -7,-2 -8,-6 -1,2 -2,3 -4,3 0,1 1,2 1,3 0,4 -4,8 -8,9l0 0c0,5 -4,9 -8,9 -4,0 -8,-3 -9,-6 0,1 -1,1 -1,2zm141 49c5,0 9,4 9,9 0,4 -4,8 -9,8 -4,0 -8,-4 -8,-8 0,-5 4,-9 8,-9zm12 -13c4,0 8,3 8,8 0,5 -4,9 -8,9 -5,0 -9,-4 -9,-9 0,-5 4,-8 9,-8zm12 16c5,0 9,4 9,9 0,4 -4,8 -9,8 -4,0 -8,-4 -8,-8 0,-5 4,-9 8,-9zm-28 14c5,0 8,4 8,9 0,5 -3,9 -8,9 -5,0 -9,-4 -9,-9 0,-5 4,-9 9,-9zm-212 10c4,0 8,3 8,8 0,4 -4,8 -8,8 -5,0 -8,-4 -8,-8 0,-5 3,-8 8,-8zm276 27c1,1 1,3 1,4 0,4 -3,8 -8,8 0,4 -3,8 -8,8 -4,0 -7,-4 -7,-8 0,-4 3,-8 7,-8 0,-1 1,-3 2,-4 -1,-1 -2,-2 -2,-4 0,-4 4,-8 8,-8 5,0 8,4 8,8 0,2 0,3 -1,4zm-25 18c4,0 7,4 7,8 0,5 -3,8 -7,8 -5,0 -8,-3 -8,-8 0,-4 3,-8 8,-8zm-12 12c5,0 8,4 8,8 0,5 -3,8 -8,8l-1 0c2,1 3,3 3,6 0,4 -4,8 -8,8 0,0 -1,-1 -1,-1 -1,4 -3,7 -7,7 -1,3 -4,5 -7,5 -3,0 -5,-1 -6,-3 -1,3 -4,6 -8,6 -4,0 -8,-4 -8,-8 0,-4 4,-8 8,-8 3,0 5,1 6,3 1,-3 4,-5 7,-5 1,-3 4,-5 7,-5 0,0 1,0 1,0 1,-4 4,-7 8,-7l1 0c-2,-2 -2,-4 -2,-6 0,-4 3,-8 7,-8zm-47 39c5,0 8,4 8,8 0,4 -3,8 -8,8 -4,0 -8,-4 -8,-8 0,-4 4,-8 8,-8zm-16 11c4,0 8,3 8,8 0,4 -4,7 -8,7 -5,0 -8,-3 -8,-7 0,-5 3,-8 8,-8zm-14 8c5,0 8,4 8,8 0,3 -2,5 -4,7 4,0 6,4 6,7 0,2 0,3 0,4 0,0 0,0 1,0 4,0 8,3 8,8 0,4 -4,8 -8,8 -5,0 -8,-4 -8,-8 0,-2 0,-3 1,-4 -1,0 -1,0 -2,0 -4,0 -7,-3 -7,-8 0,-3 1,-5 4,-6 -4,-1 -7,-4 -7,-8 0,-4 4,-8 8,-8zm27 15c4,0 8,3 8,8 0,4 -4,8 -8,8 -5,0 -8,-4 -8,-8 0,-5 3,-8 8,-8zm20 19c4,0 8,4 8,8 0,4 -4,8 -8,8 -4,0 -8,-4 -8,-8 0,-4 4,-8 8,-8zm-2 -35c4,0 8,4 8,8 0,4 -4,8 -8,8 -5,0 -8,-4 -8,-8 0,-4 3,-8 8,-8zm18 13c4,0 8,3 8,8 0,4 -4,8 -8,8 -4,0 -8,-4 -8,-8 0,-5 4,-8 8,-8zm27 8c4,0 8,3 8,8 0,4 -4,8 -8,8 -4,0 -8,-4 -8,-8 0,-5 4,-8 8,-8zm2 -26c5,0 8,4 8,8 0,4 -3,8 -8,8 -4,0 -7,-4 -7,-8 0,-4 3,-8 7,-8zm-26 -8c4,0 8,3 8,8 0,4 -4,7 -8,7 -4,0 -8,-3 -8,-7 0,-5 4,-8 8,-8zm19 -15c4,0 8,3 8,8 0,4 -4,8 -8,8 -4,0 -8,-4 -8,-8 0,-5 4,-8 8,-8zm37 -1c5,0 8,4 8,8 0,4 -3,8 -8,8 -4,0 -8,-4 -8,-8 0,-4 4,-8 8,-8zm-16 -23c5,0 8,3 8,8 0,4 -3,8 -8,8 -4,0 -8,-4 -8,-8 0,-5 4,-8 8,-8zm25 -1c5,0 8,4 8,8 0,4 -3,8 -8,8 -4,0 -8,-4 -8,-8 0,-4 4,-8 8,-8zm15 14c4,0 7,4 7,8 0,4 -3,8 -7,8 -5,0 -8,-4 -8,-8 0,-4 3,-8 8,-8zm4 -23c4,0 8,3 8,8 0,4 -4,7 -8,7 -4,0 -8,-3 -8,-7 0,-5 4,-8 8,-8zm-21 -16c1,2 2,4 2,6 0,4 -3,8 -8,8 -4,0 -7,-4 -7,-8 0,-3 1,-5 3,-6 -2,-2 -3,-4 -3,-6 0,-4 4,-8 8,-8 5,0 8,4 8,8 0,3 -1,5 -3,6zm-173 89c-1,1 -3,1 -4,2 -4,1 -8,-2 -10,-6 -4,1 -8,-1 -9,-5 -1,-4 1,-9 5,-10 4,-1 9,1 10,6 1,-1 3,-1 4,0 1,-1 2,-2 3,-3 5,-1 9,2 10,6 1,4 -1,8 -5,10 -2,0 -3,0 -4,0zm-25 -20c1,4 -1,9 -5,10 -4,1 -9,-2 -10,-6 -1,-4 1,-8 5,-9 5,-2 9,1 10,5zm-14 -8c1,5 -2,9 -6,10 -4,1 -8,-1 -10,-5 0,-1 0,-1 0,-1 -1,2 -2,3 -5,4 -4,1 -8,-2 -9,-6 0,0 0,-1 0,-1 -4,1 -7,-1 -9,-4 -3,-1 -6,-3 -7,-6 0,-3 0,-5 2,-7 -4,0 -7,-2 -8,-6 -1,-4 2,-8 6,-9 4,-2 8,1 9,5 1,2 1,5 -1,7 3,0 6,2 7,4 3,1 6,3 7,6 0,1 0,1 0,1 4,0 8,2 9,6 0,0 0,1 0,1 1,-2 3,-3 5,-4 4,-1 8,1 10,5zm-51 -34c2,4 -1,8 -5,9 -4,1 -9,-1 -10,-5 -1,-4 1,-9 6,-10 4,-1 8,1 9,6zm-14 -13c1,4 -1,8 -6,9 -4,1 -8,-1 -9,-5 -2,-4 1,-9 5,-10 4,-1 9,1 10,6zm-12 -11c1,4 -1,8 -5,9 -3,1 -6,0 -8,-2 0,4 -2,8 -6,9 -1,0 -2,0 -3,0 0,0 0,0 0,1 1,4 -1,8 -5,10 -4,1 -9,-2 -10,-6 -1,-4 1,-8 5,-10 2,0 3,0 4,0 0,0 0,0 0,-1 -2,-4 1,-8 5,-10 3,0 6,1 8,3 0,-4 2,-8 6,-9 4,-1 8,2 9,6zm-7 29c1,5 -1,9 -5,10 -5,1 -9,-1 -10,-5 -1,-5 1,-9 5,-10 4,-1 9,1 10,5zm-13 25c1,4 -1,9 -5,10 -5,1 -9,-1 -10,-6 -1,-4 1,-8 5,-9 5,-2 9,1 10,5zm33 -12c1,5 -1,9 -5,10 -5,1 -9,-1 -10,-5 -1,-4 1,-9 5,-10 4,-1 9,1 10,5zm-7 22c1,4 -2,8 -6,9 -4,1 -8,-1 -9,-5 -2,-4 1,-9 5,-10 4,-1 9,1 10,6zm-1 28c2,4 -1,8 -5,9 -4,2 -9,-1 -10,-5 -1,-4 2,-9 6,-10 4,-1 8,1 9,6zm26 -5c1,4 -1,8 -6,10 -4,1 -8,-2 -9,-6 -1,-4 1,-8 5,-10 4,-1 9,2 10,6zm1 -28c1,5 -2,9 -6,10 -4,1 -8,-1 -9,-5 -2,-5 1,-9 5,-10 4,-1 9,1 10,5zm19 14c1,5 -1,9 -5,10 -4,1 -9,-1 -10,-5 -1,-5 1,-9 6,-10 4,-1 8,1 9,5zm11 36c1,4 -1,9 -5,10 -5,1 -9,-1 -10,-6 -1,-4 1,-8 5,-9 5,-1 9,1 10,5zm18 -22c1,5 -1,9 -5,10 -5,1 -9,-1 -10,-5 -1,-5 1,-9 5,-10 5,-1 9,1 10,5zm8 24c1,5 -2,9 -6,10 -4,1 -8,-1 -10,-5 -1,-5 2,-9 6,-10 4,-1 8,1 10,5zm-10 18c1,4 -2,8 -6,10 -4,1 -8,-2 -9,-6 -2,-4 1,-8 5,-10 4,-1 9,2 10,6zm24 -2c1,4 -2,8 -6,10 -4,1 -8,-2 -9,-6 -2,-4 1,-8 5,-10 4,-1 9,2 10,6zm9 -25c-1,2 -3,4 -5,4 -4,1 -9,-1 -10,-5 -1,-4 2,-9 6,-10 2,-1 5,0 7,1 1,-1 2,-3 4,-3 5,-2 9,1 10,5 1,4 -1,9 -5,10 -3,0 -5,0 -7,-2zm-69 -133c4,0 8,4 8,9 0,2 -1,5 -2,6 0,0 1,0 1,0 5,0 9,4 9,9 0,4 -4,8 -9,8 -5,0 -8,-4 -8,-8 0,-3 1,-5 2,-7 0,0 -1,0 -1,0 -5,0 -9,-3 -9,-8 0,-5 4,-9 9,-9zm23 27c5,0 9,4 9,9 0,4 -4,8 -9,8 -4,0 -8,-4 -8,-8 0,-5 4,-9 8,-9zm29 17c5,0 9,4 9,9 0,5 -4,9 -9,9 -5,0 -9,-4 -9,-9 0,-5 4,-9 9,-9zm25 15c5,0 9,4 9,9 0,5 -4,9 -9,9 -5,0 -8,-4 -8,-9 0,-5 3,-9 8,-9zm20 0c5,0 9,4 9,9 0,5 -4,9 -8,9 4,0 8,4 8,8 0,5 -4,9 -9,9 -4,0 -8,-4 -8,-9 0,-4 4,-8 8,-8 -4,0 -8,-4 -8,-9 0,-5 4,-9 8,-9zm20 1c5,0 9,4 9,9 0,5 -4,8 -9,8 -5,0 -9,-3 -9,-8 0,-5 4,-9 9,-9zm7 -21c4,0 8,4 8,9 0,5 -4,8 -8,8 -5,0 -9,-3 -9,-8 0,-5 4,-9 9,-9zm28 6c5,0 9,4 9,9 0,5 -4,8 -9,8 -5,0 -9,-3 -9,-8 0,-5 4,-9 9,-9zm0 -22c5,0 9,3 9,8 0,-5 4,-8 8,-8 5,0 9,4 9,8 0,5 -4,9 -9,9 -4,0 -8,-4 -8,-8 0,4 -4,8 -9,8 -5,0 -9,-4 -9,-9 0,-4 4,-8 9,-8zm36 -30c5,0 9,4 9,8 0,5 -4,9 -9,9 -5,0 -9,-4 -9,-9 0,-4 4,-8 9,-8zm16 -116c4,0 8,4 8,8 0,4 -4,8 -8,8 -4,0 -8,-4 -8,-8 0,-4 4,-8 8,-8zm-12 12c4,0 8,3 8,8 0,4 -4,7 -8,7 -4,0 -8,-3 -8,-7 0,-5 4,-8 8,-8zm12 9c5,0 8,4 8,8 0,5 -3,8 -8,8 -4,0 -8,-3 -8,-8 0,-4 4,-8 8,-8zm6 18c5,0 8,4 8,8 0,5 -3,8 -8,8 -4,0 -8,-3 -8,-8 0,-4 4,-8 8,-8zm19 -5c5,0 8,3 8,8 0,4 -3,7 -8,7 -4,0 -7,-3 -7,-7 0,-5 3,-8 7,-8zm24 -40c4,0 8,3 8,8 0,4 -4,7 -8,7 -5,0 -8,-3 -8,-7 0,-5 3,-8 8,-8zm-12 -16c5,0 8,3 8,7 0,5 -3,8 -8,8 -4,0 -7,-3 -7,-8 0,-4 3,-7 7,-7zm-16 11c4,0 7,3 7,8 0,4 -3,8 -7,8 -5,0 -8,-4 -8,-8 0,-5 3,-8 8,-8zm-1 16c5,0 8,4 8,8 0,5 -3,8 -8,8 -4,0 -8,-3 -8,-8 0,-4 4,-8 8,-8zm19 9c4,0 8,3 8,7 0,5 -4,8 -8,8 -4,0 -8,-3 -8,-8 0,-4 4,-7 8,-7zm23 4c4,0 8,3 8,8 0,4 -4,7 -8,7 -4,0 -8,-3 -8,-7 0,-5 4,-8 8,-8zm-11 11c4,0 8,4 8,8 0,4 -4,8 -8,8 -4,0 -8,-4 -8,-8 0,-4 4,-8 8,-8zm-16 22c5,0 8,4 8,8 0,5 -3,8 -8,8 -4,0 -8,-3 -8,-8 0,-4 4,-8 8,-8zm-22 8c5,0 8,3 8,8 0,4 -3,8 -8,8 -4,0 -7,-4 -7,-8 0,-5 3,-8 7,-8zm23 22c5,0 8,3 8,8 0,4 -3,8 -8,8 -4,0 -8,-4 -8,-8 0,-5 4,-8 8,-8zm26 -19c4,0 8,3 8,8 0,4 -4,8 -8,8 -5,0 -8,-4 -8,-8 0,-5 3,-8 8,-8zm12 -32c4,0 8,4 8,8 0,4 -4,8 -8,8 -5,0 -8,-4 -8,-8 0,-4 3,-8 8,-8zm-3 -32c4,0 8,3 8,8 0,4 -4,8 -8,8 -5,0 -8,-4 -8,-8 0,-5 3,-8 8,-8zm-1 -20c5,0 8,3 8,8 0,4 -3,8 -8,8 -4,0 -8,-4 -8,-8 0,-5 4,-8 8,-8zm-15 -16c4,0 8,4 8,8 0,4 -4,8 -8,8 -4,0 -8,-4 -8,-8 0,-4 4,-8 8,-8zm-29 -22c4,0 8,4 8,8 0,4 -4,8 -8,8 -4,0 -8,-4 -8,-8 0,-4 4,-8 8,-8zm-26 23c2,1 4,4 4,6 0,1 0,2 -1,2 2,-1 4,-2 6,-2 1,0 3,0 4,0l0 0c0,-2 0,-4 1,-5 -1,1 -3,1 -4,1 -4,0 -6,-2 -8,-4 0,0 -1,1 -2,2zm2 12c-2,1 -4,2 -6,2 -1,0 -3,0 -4,-1l0 1c0,5 -3,8 -7,8l-1 0 0 0c0,5 -4,8 -8,8 -3,0 -5,-1 -6,-3l0 0c0,5 -4,8 -8,8 -5,0 -8,-3 -8,-8l0 0c-2,-1 -4,-4 -4,-6 0,-3 1,-4 2,-6 0,0 0,-1 0,-2 0,-4 3,-8 8,-8 1,0 1,0 2,1 0,-4 4,-8 8,-8 1,0 1,0 2,1 0,-5 4,-8 8,-8 4,0 8,4 8,8 0,4 -4,8 -8,8 -1,0 -1,0 -2,-1 0,5 -4,8 -8,8 -1,0 -2,0 -2,0 0,2 -1,3 -2,5 0,0 0,1 0,2l0 0c1,0 1,1 2,2l0 -1c0,-4 4,-7 8,-7l1 0 0 -1c0,-4 3,-8 8,-8 1,0 2,1 3,1l0 -1c0,-3 2,-5 4,-6 -2,-2 -4,-4 -4,-7 0,-4 4,-8 8,-8 3,0 6,2 7,5 2,-2 4,-3 7,-3 4,0 8,3 8,7 0,2 -1,4 -2,5 1,-1 3,-1 5,-1 4,0 7,3 7,8 0,4 -3,7 -7,7 -2,0 -3,0 -4,0l0 0c0,5 -3,8 -8,8l0 0c0,1 0,2 0,2 0,5 -3,8 -8,8 -1,0 -2,0 -3,-1 0,5 -3,8 -7,8 -5,0 -8,-3 -8,-8 0,-4 3,-8 8,-8 1,0 2,1 3,1 0,-4 3,-8 7,-8l1 0c-1,0 -1,-1 -1,-2 0,0 0,-1 1,-1zm-26 18c4,0 8,4 8,8 0,5 -4,8 -8,8 -4,0 -8,-3 -8,-8 0,-4 4,-8 8,-8zm-91 -34c4,0 7,4 7,8 0,2 0,3 -1,4l1 1c1,-3 3,-5 6,-5 -1,-2 -2,-3 -2,-6 0,-4 4,-7 8,-7 4,0 8,3 8,7 0,5 -3,8 -7,8 1,2 2,4 2,6 0,4 -4,7 -8,7 -3,0 -6,-2 -7,-4 -1,3 -4,5 -7,5 -5,0 -8,-4 -8,-8 0,-1 0,-3 1,-4 -1,-1 -1,-2 -1,-4 0,0 0,-1 0,-1 -4,0 -8,-4 -8,-8 0,-1 1,-3 1,-4 -4,0 -8,-3 -8,-7 0,-5 4,-8 8,-8 5,0 8,3 8,8 0,1 0,2 -1,3 4,0 8,4 8,8 0,1 0,1 0,1zm-38 -12c4,0 8,3 8,7 0,1 0,1 0,1 3,1 6,4 6,8 0,4 -3,7 -7,8 2,1 3,2 4,4 1,-4 4,-7 8,-7 4,0 8,4 8,8 0,4 -4,8 -8,8 -3,0 -6,-2 -7,-5 -1,4 -4,7 -8,7 -5,0 -8,-4 -8,-8 0,-4 3,-7 7,-8 -3,-1 -5,-4 -5,-7 0,0 0,-1 0,-1 -2,-1 -4,-2 -5,-4l0 0c0,5 -4,8 -8,8 -4,0 -8,-3 -8,-8 0,-4 4,-7 8,-7 3,0 6,2 7,4l0 -1c0,-1 1,-2 1,-3 -4,0 -8,-4 -8,-8 0,-5 4,-8 8,-8 5,0 8,3 8,8 0,1 0,2 -1,4zm73 -31c1,1 1,2 1,4 0,4 -3,8 -8,8 -4,0 -8,-4 -8,-8 0,-2 1,-3 2,-4 -1,-1 -2,-3 -2,-4 0,-4 4,-8 8,-8 5,0 8,4 8,8 0,1 0,3 -1,4zm-33 4c4,0 8,4 8,8 0,3 -2,6 -5,7 0,5 -4,8 -8,8 -4,0 -8,-3 -8,-8 0,-3 2,-6 5,-7 0,-4 4,-8 8,-8zm11 17c5,0 8,4 8,8 0,4 -3,8 -8,8 -4,0 -7,-4 -7,-8 0,-4 3,-8 7,-8zm22 30c5,0 8,4 8,8 0,4 -3,8 -8,8 -4,0 -7,-4 -7,-8 0,-4 3,-8 7,-8zm-83 16c4,0 7,3 7,8 0,4 -3,8 -7,8 -5,0 -8,-4 -8,-8 0,-5 3,-8 8,-8zm-3 -16c5,0 8,4 8,8 0,4 -3,8 -8,8 -4,0 -8,-4 -8,-8 0,-4 4,-8 8,-8zm-11 -38c4,0 8,3 8,7 0,5 -4,8 -8,8 -4,0 -8,-3 -8,-8 0,-1 0,-2 1,-3 -1,1 -3,2 -5,2 -4,0 -7,-4 -7,-8 0,-4 2,-6 4,-8 1,-4 4,-7 8,-7 5,0 8,3 8,8 0,3 -2,6 -5,7 0,1 0,2 0,3 1,-1 2,-1 4,-1zm-15 10c4,0 8,4 8,8 0,5 -4,8 -8,8 -4,0 -8,-3 -8,-8 0,-4 4,-8 8,-8zm24 -32c5,0 8,3 8,8 0,4 -3,8 -8,8 -4,0 -7,-4 -7,-8 0,-5 3,-8 7,-8zm24 10c5,0 8,3 8,8 0,4 -3,8 -8,8 -4,0 -7,-4 -7,-8 0,-5 3,-8 7,-8zm13 -10c4,0 8,3 8,8 0,4 -4,8 -8,8 -5,0 -8,-4 -8,-8 -4,0 -8,-4 -8,-8 0,-5 4,-8 8,-8 4,0 8,3 8,8zm27 -1c4,0 8,3 8,8 0,4 -4,7 -8,7 -4,0 -8,-3 -8,-7 0,-5 4,-8 8,-8zm40 39c4,0 8,3 8,8 0,4 -4,7 -8,7 -5,0 -8,-3 -8,-7 0,-5 3,-8 8,-8zm-23 -17c5,0 8,4 8,8 0,4 -3,8 -8,8 -4,0 -8,-4 -8,-8 0,-4 4,-8 8,-8zm39 -10c4,0 7,4 7,8 0,5 -3,8 -7,8 -5,0 -8,-3 -8,-8 0,-4 3,-8 8,-8zm-15 -18c4,0 7,3 7,8 0,4 -3,7 -7,7 -5,0 -8,-3 -8,-7 0,-5 3,-8 8,-8zm-38 -10c4,0 8,3 8,8 0,4 -4,8 -8,8 -5,0 -8,-4 -8,-8 0,-5 3,-8 8,-8zm-4 -17c5,0 8,4 8,8 0,5 -3,8 -8,8 -4,0 -8,-3 -8,-8 0,-4 4,-8 8,-8zm-30 10c4,0 7,4 7,8 0,4 -3,8 -7,8 -5,0 -8,-4 -8,-8 0,-4 3,-8 8,-8zm-27 7c5,0 8,3 8,8 0,4 -3,8 -8,8 -4,0 -7,-4 -7,-8 0,-5 3,-8 7,-8zm3 -18c5,0 8,4 8,8 0,4 -3,8 -8,8 -4,0 -7,-4 -7,-8 0,-4 3,-8 7,-8zm-43 130c5,0 8,3 8,8 0,4 -3,8 -8,8 0,0 -1,0 -2,-1 1,1 1,3 1,4 0,4 -3,8 -8,8 -4,0 -8,-4 -8,-8 0,-1 1,-2 1,-3l0 0c-2,0 -4,0 -5,-1 0,0 0,1 0,1 0,5 -3,8 -8,8 -4,0 -7,-3 -7,-8 0,-4 3,-7 7,-7 2,0 4,0 5,1 0,0 0,-1 0,-1 0,-5 4,-8 8,-8 4,0 8,3 8,8 0,0 0,1 -1,2l0 0c1,0 2,0 2,0 0,-1 -1,-2 -1,-3 0,-2 1,-3 2,-5l-1 0c-4,0 -8,-3 -8,-8 0,-4 4,-7 8,-7 5,0 8,3 8,7 0,2 0,4 -1,5l0 0zm-20 25c4,0 8,3 8,8 0,4 -4,7 -8,7 -4,0 -8,-3 -8,-7 0,-5 4,-8 8,-8zm-10 21c4,0 7,4 7,8 0,5 -3,8 -7,8 -5,0 -8,-3 -8,-8 0,-4 3,-8 8,-8zm-14 44c4,0 7,3 7,8 0,4 -3,8 -7,8 -5,0 -8,-4 -8,-8 0,-5 3,-8 8,-8zm-21 6c5,0 8,3 8,8 0,4 -3,8 -8,8 -4,0 -8,-4 -8,-8 0,-5 4,-8 8,-8zm13 -22c1,0 3,1 4,2 0,-4 4,-8 8,-8 5,0 8,4 8,8 0,4 -3,8 -8,8 -2,0 -3,-1 -5,-2 0,4 -3,8 -7,8 -5,0 -8,-4 -8,-8 0,-4 3,-8 8,-8zm-2 -22c5,0 8,3 8,7 0,5 -3,8 -8,8 -4,0 -7,-3 -7,-8 0,-4 3,-7 7,-7zm16 -21c5,0 8,4 8,8 0,4 -3,8 -8,8 -4,0 -7,-4 -7,-8 0,-4 3,-8 7,-8zm14 -53c4,0 7,3 7,8 0,4 -3,8 -7,8 -5,0 -8,-4 -8,-8 0,-5 3,-8 8,-8zm-14 14c5,0 8,4 8,8 0,4 -3,8 -8,8 -4,0 -7,-4 -7,-8 0,-4 3,-8 7,-8zm-7 -19c4,0 8,3 8,8 0,4 -4,8 -8,8 -4,0 -8,-4 -8,-8 0,-5 4,-8 8,-8zm-7 42c5,0 8,3 8,7 0,5 -3,8 -8,8 -4,0 -8,-3 -8,-8 0,-4 4,-7 8,-7zm-14 -9c4,0 8,4 8,8 0,4 -4,8 -8,8 -4,0 -8,-4 -8,-8 0,-4 4,-8 8,-8zm-1 25c4,0 7,4 7,8 0,4 -3,8 -7,8 -5,0 -8,-4 -8,-8 0,-4 3,-8 8,-8zm-4 24c4,0 8,4 8,8 0,4 -4,8 -8,8 -5,0 -8,-4 -8,-8 0,-4 3,-8 8,-8zm-11 -19c4,0 7,4 7,8 0,4 -3,8 -7,8 -5,0 -8,-4 -8,-8 0,-4 3,-8 8,-8zm0 68c5,0 8,4 8,8 0,5 -3,8 -8,8 -4,0 -8,-3 -8,-8 0,-4 4,-8 8,-8zm-1 -25c4,0 8,4 8,8 0,5 -4,8 -8,8 -5,0 -8,-3 -8,-8 0,-4 3,-8 8,-8z"/>
     </g>
    </g>
    <path class="fil7" d="M1451 2138c0,0 -35,-31 -41,-43 -6,-12 1,-55 22,-74 21,-20 59,-42 89,-27 30,15 70,44 73,53 3,9 7,28 7,28 -22,14 -45,22 -52,56 -17,-3 -36,-3 -53,-2 -41,3 -62,18 -83,42 -21,23 -26,95 -26,106 0,2 1,5 4,9 -10,-3 -33,-11 -51,-23 -21,-14 -45,-24 -47,-33 -5,-21 5,-69 25,-93 20,-24 25,-32 49,-34 23,-2 38,-5 38,-5l46 40zm-2 65c-1,1 -3,3 -4,4 3,-9 6,-16 9,-18 10,-7 38,-31 63,-28 48,6 76,62 60,97 -8,16 -51,51 -51,51l-2 -5c6,-4 16,-8 23,-19 -9,9 -22,14 -36,14 -20,0 -47,-9 -63,-24 4,6 8,10 14,15 5,5 54,15 64,19 -9,6 -40,2 -59,-5 -38,-15 -40,-75 -18,-101zm106 11c1,2 2,5 4,8 -1,-4 -3,-6 -4,-8zm-97 -20c5,-3 12,-5 19,-7l-2 1c-6,0 -12,3 -17,6zm91 -63c3,-3 64,-72 116,-58 15,4 51,43 57,67 7,24 6,55 -6,75 -12,19 -21,34 -37,38 -11,4 -31,-2 -42,-5 -2,-25 -16,-51 -28,-76 -12,-25 -35,-36 -60,-41zm88 119c18,12 59,40 63,51 5,15 15,42 -1,57 -17,15 -43,45 -52,53 -9,9 -34,36 -61,31 -12,-2 -24,-12 -37,-14 -23,-4 -28,-41 -30,-57 3,0 6,0 8,0 7,0 58,-42 93,-76 14,-13 18,-28 17,-45zm-118 121c-1,16 -4,49 -14,55 -9,6 -18,14 -26,16 -17,4 -25,17 -69,-6 -43,-22 -98,-70 -96,-88 3,-18 2,-49 18,-56 13,-5 48,-5 60,-5 9,11 31,27 53,39 29,17 59,44 59,44 0,0 8,1 15,1zm-14 -12c0,0 -27,-25 -54,-40 -27,-14 -53,-35 -53,-45 0,-10 5,-75 24,-96 19,-21 38,-35 75,-38 38,-3 84,1 103,39 19,39 41,82 10,112 -32,30 -78,69 -85,69 -6,1 -20,-1 -20,-1z"/>
    <path class="fil8" d="M1496 2259c4,0 7,4 7,8 0,4 -3,7 -7,7 -4,0 -7,-3 -7,-7 0,-4 3,-8 7,-8zm23 52c-20,1 -41,-6 -57,-21 -17,-14 -28,-39 -25,-56 3,-17 18,-42 41,-45 11,-2 28,1 43,5 -3,1 -5,4 -5,7 0,3 1,5 3,6 0,1 0,2 0,3 0,4 3,7 7,7 4,0 7,-3 7,-7 0,-3 -1,-5 -3,-6 0,-1 1,-2 1,-3 0,-1 -4,-5 -5,-6 39,14 40,51 25,81 -8,14 -16,30 -32,35zm-42 -121c4,0 7,4 7,8 0,4 -3,7 -7,7 -4,0 -7,-3 -7,-7 0,-4 3,-8 7,-8zm21 2c4,0 7,4 7,8 0,2 -1,4 -2,5 0,1 0,1 0,2 0,4 -3,7 -7,7 -2,0 -4,-1 -6,-2 1,0 1,1 1,1 0,2 -1,4 -3,6 1,-1 2,-1 3,-1 4,0 8,3 8,7l0 1c1,-2 3,-2 5,-2 4,0 7,3 7,7 0,4 -3,7 -7,7 -4,0 -8,-3 -8,-7l0 0c-1,1 -3,2 -5,2 -4,0 -7,-4 -7,-8 0,-2 1,-4 2,-5 -1,1 -2,1 -3,1 -4,0 -7,-4 -7,-8 0,-4 3,-7 7,-7 2,0 4,1 6,2 0,0 -1,-1 -1,-1 0,-3 1,-4 3,-6 0,0 0,-1 0,-1 0,-4 3,-8 7,-8zm16 21c4,0 8,3 8,8 0,4 -4,7 -8,7 -4,0 -7,-3 -7,-7 0,-5 3,-8 7,-8zm23 2c4,0 8,4 8,8 0,4 -4,7 -8,7 -4,0 -7,-3 -7,-7 0,-4 3,-8 7,-8zm9 21c4,0 8,3 8,7 0,4 -4,8 -8,8 -4,0 -7,-4 -7,-8 0,-4 3,-7 7,-7zm-20 -8c4,0 8,3 8,7 0,4 -4,7 -8,7 -4,0 -7,-3 -7,-7 0,-4 3,-7 7,-7zm-59 -16c4,0 7,3 7,7 0,4 -3,7 -7,7 -4,0 -7,-3 -7,-7 0,-3 1,-5 3,-6 -4,0 -7,-4 -7,-7 0,-5 4,-8 8,-8 4,0 7,3 7,8 0,2 -2,4 -4,6zm-17 4c4,0 7,3 7,7 0,4 -3,7 -7,7 -4,0 -7,-3 -7,-7 0,-4 3,-7 7,-7zm-1 30c4,0 7,3 7,7 0,4 -3,7 -7,7 -4,0 -7,-3 -7,-7 0,-4 3,-7 7,-7zm8 -17c4,0 7,4 7,8 0,4 -3,7 -7,7 -4,0 -7,-3 -7,-7 0,-4 3,-8 7,-8zm25 4c4,0 8,3 8,7 0,4 -4,7 -8,7 -4,0 -7,-3 -7,-7 0,-4 3,-7 7,-7zm53 18c4,0 7,4 7,8 0,4 -3,7 -7,7 -4,0 -7,-3 -7,-7 0,-4 3,-8 7,-8zm-25 -8c4,0 8,3 8,7 0,5 -4,8 -8,8 -4,0 -7,-3 -7,-8 0,-4 3,-7 7,-7z"/>
   </g>
   <path class="fil0" d="M1466 1223c-1,-22 -1,-39 -1,-59 -11,-8 -28,-22 -31,-31 -3,-11 -4,-29 12,-30 7,-1 29,11 34,8 17,-9 16,-20 14,-39 -3,-25 -16,-87 -28,-107 -10,-16 -20,-32 -29,-48l-5 -8 7 -6c40,-36 18,-59 43,-97 6,-8 16,-19 25,-24l18 -8 -1 19c0,20 -1,55 4,74 4,17 15,24 20,37 2,6 4,14 4,21 4,5 9,7 10,16 0,4 -1,10 -2,16 3,3 5,8 5,12 0,5 0,10 -1,15 3,5 4,12 4,18 -1,7 -5,14 -9,20 1,22 2,53 0,73 -3,17 -17,38 -28,50 -3,4 -6,7 -10,10l2 23c3,17 8,34 12,51l3 25c1,22 2,46 5,68 3,24 -18,66 -38,79 -20,12 -40,-9 -54,-14 -4,0 -7,-1 -10,-4 -11,-12 14,-37 20,-47 5,-6 11,-16 14,-23 4,-10 0,-33 -4,-50l-5 -15 0 -9 0 -16z"/>
   <g>
    <path class="fil1" d="M1478 1246l-2 -60c6,-8 26,-14 35,-5l0 -2c3,17 15,60 15,60 -18,-4 -36,1 -48,7zm33 -73c0,0 0,0 0,0l0 0z"/>
    <path class="fil0" d="M1478 1246c0,0 15,50 8,71 -8,21 -43,59 -35,59 7,0 36,23 48,15 12,-8 36,-44 33,-67 -3,-24 -6,-85 -6,-85 -18,-4 -36,1 -48,7z"/>
    <path class="fil6" d="M1476 1187c0,2 1,-29 1,-29 0,0 -30,-22 -32,-28 -1,-7 -3,-15 2,-16 4,0 27,13 39,7 12,-7 24,-13 19,-50 -4,-37 -18,-94 -30,-112 -11,-18 -28,-48 -28,-48 45,-39 21,-63 45,-98 10,-15 21,-20 21,-20 0,0 -1,57 4,76 5,20 18,33 20,39 3,6 4,15 3,20 0,4 10,8 10,14 1,5 -2,19 -2,19 0,0 5,3 5,9 1,6 -2,17 -2,17 0,0 6,5 5,14 -1,8 -9,17 -9,17 0,0 2,60 0,75 -2,16 -19,38 -25,45 -6,7 -13,11 -13,11l2 32c-9,-10 -30,-2 -35,6zm50 -275c4,0 7,3 7,7 0,3 -3,6 -7,6 -3,0 -6,-3 -6,-6 0,-4 3,-7 6,-7zm7 25c3,0 6,3 6,7 0,3 -3,6 -6,6 -4,0 -7,-3 -7,-6 0,-4 3,-7 7,-7zm4 28c3,0 6,3 6,6 0,4 -3,7 -6,7 -4,0 -7,-3 -7,-7 0,-3 3,-6 7,-6zm2 29c3,0 6,3 6,7 0,3 -3,6 -6,6 -4,0 -7,-3 -7,-6 0,-4 3,-7 7,-7zm-69 379c0,0 23,10 30,-5 9,-17 17,-62 11,-79 -4,-9 -13,-9 -13,-9 -5,41 -2,58 -34,84l6 9z"/>
   </g>
   <g>
    <polygon class="fil9" points="1531,620 1620,620 1548,672 1576,757 1503,705 1431,757 1459,672 1386,620 1476,620 1503,535 "/>
    <polygon class="fil6" points="1503,562 1525,628 1594,628 1538,669 1559,735 1503,694 1447,735 1469,669 1413,628 1482,628 "/>
   </g>
   <polygon class="fil1" points="751,1349 863,1349 863,1400 956,1400 956,1349 1067,1349 1067,1400 1152,1400 1152,1349 1264,1349 1264,1400 1330,1400 1330,1349 1441,1349 1441,1400 1528,1400 1528,1349 1639,1349 1639,1400 1730,1400 1730,1349 1841,1349 1841,1400 1940,1400 1940,1349 2051,1349 2051,1400 2140,1400 2140,1349 2251,1349 2251,1400 2343,1400 2343,1349 2454,1349 2454,1400 2497,1400 2497,1506 515,1506 515,1400 557,1400 557,1349 668,1349 668,1400 751,1400 "/>
   <path class="fil10" d="M822 870c6,0 23,-3 42,-5 18,-2 38,-2 59,2 21,4 43,11 58,22 14,12 20,26 23,32 3,7 2,7 -27,0 -29,-6 -87,-18 -117,-24 -31,-6 -36,-7 -35,-5 2,2 10,7 24,14 15,8 36,18 55,30 19,12 35,26 45,40 9,14 12,29 13,40 1,12 1,20 0,22 -1,3 -3,-1 -25,-20 -22,-19 -63,-54 -86,-74 -23,-21 -29,-26 -29,-26 -1,0 3,5 17,21 14,17 40,45 54,67 15,21 19,35 21,46 2,11 2,19 1,23 0,4 -2,4 -14,-3 -12,-6 -35,-19 -51,-41 -15,-22 -24,-54 -32,-73 -7,-19 -13,-26 -16,-26 -4,1 -6,9 -4,24 1,15 6,36 8,58 2,22 1,46 -1,63 -3,16 -7,25 -10,29 -3,4 -3,2 -9,-9 -5,-10 -17,-30 -23,-53 -6,-24 -7,-53 -7,-72 0,-19 1,-29 2,-33 0,-5 -1,-3 -6,9 -4,12 -12,35 -16,52 -3,18 -2,30 -4,44 -2,14 -7,30 -12,40 -6,10 -11,14 -15,11 -3,-2 -4,-11 -5,-24 -1,-12 -3,-28 -3,-38 -1,-11 1,-16 -2,-11 -2,4 -8,18 -13,26 -6,8 -10,11 -13,11 -2,0 -3,-3 1,-18 4,-15 12,-41 26,-65 15,-25 34,-47 43,-58 10,-11 9,-11 1,-3 -8,8 -23,23 -39,41 -15,17 -30,36 -39,57 -10,21 -14,45 -17,50 -4,6 -6,-7 -7,-23 0,-16 2,-37 8,-53 6,-15 17,-27 21,-33 4,-6 2,-8 -6,-5 -7,3 -21,9 -34,20 -12,11 -24,26 -25,22 -1,-4 8,-27 21,-43 13,-16 31,-25 43,-31 12,-5 18,-7 17,-10 -2,-2 -12,-4 -34,2 -21,7 -54,22 -73,33 -20,12 -27,20 -27,12 0,-7 7,-29 25,-45 18,-17 47,-29 75,-34 29,-4 57,-2 71,-3 13,-1 13,-4 -2,-14 -15,-10 -43,-26 -61,-33 -17,-7 -24,-6 -18,-10 6,-5 24,-15 47,-11 24,4 53,23 69,34 16,11 19,13 20,7 1,-6 0,-20 11,-37 11,-16 35,-35 53,-43 17,-7 28,-3 33,-1 4,2 2,2 -5,6 -7,3 -19,10 -30,24 -11,14 -19,34 -20,42 -1,7 6,2 19,-4 13,-7 31,-15 49,-16 18,-2 35,2 45,6 11,4 15,6 17,8 2,2 2,2 -8,4 -11,2 -32,4 -53,9 -21,6 -43,14 -55,19 -13,6 -16,8 -9,8z"/>
   <path class="fil3" d="M869 510l0 -120 18 0 0 53 35 -53 24 0 -33 47 34 73 -22 0 -24 -56 -14 20 0 36 -18 0zm166 0l-19 0 -8 -27 -35 0 -7 27 -18 0 33 -120 19 0 35 120zm-33 -48l-12 -44 -11 44 23 0zm42 -72l35 0c7,0 12,0 15,1 3,1 6,2 9,5 3,2 5,6 7,10 1,4 2,9 2,14 0,6 -1,11 -3,16 -2,4 -5,8 -9,10 5,2 10,6 12,11 3,5 5,11 5,18 0,6 -1,11 -3,16 -2,5 -4,10 -8,13 -3,3 -7,5 -11,5 -3,1 -10,1 -22,1l-29 0 0 -120zm17 20l0 28 12 0c7,0 11,-1 13,-1 3,0 5,-2 7,-4 1,-3 2,-6 2,-10 0,-3 0,-6 -2,-9 -1,-2 -4,-3 -7,-4 -1,0 -6,0 -14,0l-11 0zm0 48l0 32 17 0c6,0 10,0 12,-1 2,0 4,-2 6,-5 2,-2 3,-6 3,-10 0,-4 -1,-7 -2,-9 -2,-3 -3,-5 -6,-6 -2,-1 -7,-1 -15,-1l-15 0zm70 52l0 -23 17 0 0 23 -17 0zm68 0l0 -120 28 0c10,0 17,0 21,2 5,1 9,5 12,11 3,6 5,14 5,24 0,7 -1,13 -3,19 -2,5 -4,9 -7,11 -3,3 -6,5 -9,6 -4,1 -10,2 -18,2l-12 0 0 45 -17 0zm17 -100l0 34 10 0c7,0 11,0 14,-1 2,-2 4,-4 5,-6 1,-3 2,-6 2,-10 0,-4 -1,-8 -3,-11 -2,-3 -4,-4 -7,-5 -2,-1 -6,-1 -12,-1l-9 0zm142 100l-19 0 -8 -27 -34 0 -8 27 -18 0 33 -120 19 0 35 120zm-32 -48l-12 -44 -12 44 24 0zm41 48l0 -120 17 0 36 81 0 -81 16 0 0 120 -18 0 -35 -79 0 79 -16 0zm128 -44l0 -20 38 0 0 48c-4,5 -9,9 -16,13 -7,4 -14,5 -21,5 -10,0 -17,-2 -24,-7 -7,-6 -12,-13 -15,-23 -4,-10 -5,-21 -5,-32 0,-13 1,-24 5,-34 4,-10 10,-17 17,-22 5,-4 12,-6 21,-6 10,0 19,3 25,9 6,6 10,15 12,26l-18 5c-1,-6 -3,-11 -7,-14 -3,-4 -7,-6 -12,-6 -8,0 -14,4 -19,11 -4,6 -6,16 -6,30 0,14 2,25 6,32 5,7 11,11 18,11 4,0 8,-1 11,-3 4,-2 7,-5 10,-8l0 -15 -20 0zm132 44l-19 0 -7 -27 -35 0 -7 27 -19 0 34 -120 18 0 35 120zm-32 -48l-12 -44 -12 44 24 0zm41 48l0 -120 17 0 36 81 0 -81 16 0 0 120 -17 0 -35 -79 0 79 -17 0zm88 -120l32 0c7,0 12,0 16,2 5,2 10,6 13,11 4,5 7,12 9,20 1,7 2,17 2,28 0,10 0,19 -2,26 -2,9 -5,16 -10,21 -3,4 -7,7 -12,10 -4,1 -9,2 -15,2l-33 0 0 -120zm17 20l0 80 13 0c5,0 9,0 11,-1 3,-1 5,-3 7,-5 2,-3 3,-6 5,-12 1,-5 1,-13 1,-22 0,-9 0,-16 -1,-21 -2,-5 -3,-9 -5,-12 -2,-3 -5,-5 -8,-6 -3,0 -8,-1 -15,-1l-8 0zm149 100l-19 0 -8 -27 -35 0 -7 27 -18 0 33 -120 19 0 35 120zm-33 -48l-12 -44 -11 44 23 0zm42 48l0 -120 37 0c9,0 16,1 20,3 4,2 8,6 10,12 3,5 4,11 4,19 0,9 -2,16 -6,22 -4,6 -9,10 -17,11 4,3 7,7 9,10 3,4 6,10 10,20l11 23 -21 0 -13 -26c-4,-9 -7,-15 -9,-18 -2,-2 -3,-4 -5,-5 -2,-1 -5,-1 -9,-1l-4 0 0 50 -17 0zm17 -69l13 0c9,0 14,-1 16,-2 2,-1 4,-2 5,-5 1,-2 2,-5 2,-9 0,-4 -1,-7 -3,-10 -1,-2 -3,-4 -6,-4 -2,-1 -6,-1 -13,-1l-14 0 0 31zm149 69l-19 0 -8 -27 -35 0 -7 27 -18 0 33 -120 19 0 35 120zm-33 -48l-12 -44 -11 44 23 0zm42 48l0 -120 17 0 36 81 0 -81 16 0 0 120 -18 0 -35 -79 0 79 -16 0z"/>
   <g>
    <path class="fil1" d="M2392 2266c17,-29 36,-58 54,-85 36,-51 56,-69 117,-95 22,-9 45,-18 68,-28 -16,18 -33,37 -49,55 -31,35 -69,110 -60,161 50,-1 100,-1 151,-2 -14,10 -28,21 -42,31 -25,19 -48,71 -60,100 -12,30 -23,61 -34,92 -4,11 -19,57 -31,60 -37,-13 -47,-17 -84,-30 -595,496 -1245,501 -1847,7 -24,9 -48,18 -72,27 -24,2 -35,-39 -40,-56 -11,-31 -22,-61 -34,-92 -12,-29 -35,-80 -60,-100 -14,-10 -28,-20 -42,-31 51,1 101,2 151,2 9,-50 -29,-126 -60,-160 -16,-19 -33,-37 -49,-56 23,10 46,19 68,29 61,25 81,43 117,95 18,25 36,54 52,82 8,-18 15,-36 23,-53 6,5 12,11 18,17 554,535 1152,533 1702,-6 2,-1 4,-3 5,-4 7,0 13,0 20,0 6,13 12,27 18,40z"/>
    <path class="fil1" d="M2391 2304c16,-32 45,-78 69,-113 28,-40 44,-61 109,-89 -52,59 -76,145 -60,189l112 -1c-65,48 -111,263 -120,240 -12,-2 -19,-50 -33,-58 14,16 20,41 31,62l-74 -26 43 -36c-4,-2 -9,-1 -14,4l0 0c3,-3 7,-6 10,-9l-73 -163zm-1862 175l-25 51c10,-24 10,-70 38,-49 628,545 1306,532 1921,-14l-75 -168 -25 -56 -2 0c-553,541 -1162,551 -1726,5l-27 63c-16,-32 -44,-77 -68,-112 -28,-40 -44,-61 -109,-89 52,59 76,145 60,190l-112 -2c65,49 111,264 120,240 1,-1 2,-2 2,-3l0 7 71 -27 -43 -36zm8 -2l35 -83 -36 82 1 1z"/>
    <path class="fil6" d="M2361 2243l2 0 25 56 75 168c-617,547 -1297,559 -1926,10l98 -229c564,546 1173,536 1726,-5z"/>
    <path class="fil6" d="M2391 2304c16,-32 45,-78 69,-113 28,-40 44,-61 109,-89 -52,59 -76,145 -60,189l112 -1c-65,48 -111,263 -120,240 -15,-2 -22,-81 -47,-54l0 0c3,-3 7,-6 10,-9l-73 -163zm-1782 8c-16,-32 -45,-78 -69,-113 -28,-40 -44,-61 -109,-89 52,59 76,145 60,190l-112 -2c65,49 111,264 120,240 16,-18 11,-87 47,-53l0 0c-3,-3 -7,-6 -10,-9l73 -164z"/>
    <path class="fil11" d="M2387 2302c8,-16 19,-35 31,-55 12,-20 25,-41 38,-59l0 0c14,-20 25,-36 41,-50 16,-14 37,-27 70,-41 3,-1 6,1 7,3 1,2 0,4 -1,6 -25,28 -43,62 -54,95 -10,33 -13,64 -6,85l108 -1c3,0 5,2 5,5 0,1 -1,3 -2,4l0 0c-39,29 -72,124 -94,185 -11,32 -19,55 -25,57l0 0c-3,1 -6,1 -8,-2 -7,-4 -12,-16 -16,-29 -5,-11 -9,-23 -14,-28 -2,-1 -4,-1 -6,0l-3 3 0 0c-2,2 -5,2 -7,0 -1,0 -1,-1 -2,-1l0 -1c-1,-2 0,-4 2,-6l0 0c2,-1 3,-3 5,-4l2 -2 -71 -160c-1,-1 -1,-3 0,-4zm39 -50c-11,19 -21,37 -29,52l72 161c0,1 0,1 0,2 2,0 3,2 5,3 7,6 11,19 16,31 4,12 9,23 12,24l0 0c0,0 0,0 0,0 4,-6 10,-25 19,-49 20,-57 50,-143 86,-181l-97 1c-3,1 -5,-1 -6,-3 -8,-24 -6,-58 5,-95 9,-28 24,-57 43,-83 -21,11 -36,20 -48,31 -15,13 -26,28 -40,48l0 0 0 0c-12,18 -25,38 -38,58zm-1824 59c-8,-15 -17,-32 -28,-50 -13,-21 -26,-41 -38,-59l0 0 0 0c-14,-20 -25,-35 -40,-48 -12,-11 -27,-20 -48,-30 19,25 34,54 43,82 11,37 13,72 5,95 -1,2 -3,4 -6,4l-97 -2c36,38 66,124 86,181 8,23 15,42 18,48 3,-5 6,-15 8,-24 3,-13 6,-25 13,-32 4,-4 8,-6 14,-5l70 -160zm-20 -56c12,20 23,39 31,55 0,0 0,1 -1,3l-70 161 3 3 0 0 4 4c2,1 3,3 2,6l0 0 0 0c-1,0 -1,1 -1,1 -2,2 -5,2 -8,0 -9,-8 -14,-8 -17,-5 -4,5 -7,16 -10,27 -3,12 -6,24 -11,31 -2,4 -5,5 -9,4l0 0c-6,-3 -14,-26 -25,-58 -22,-61 -55,-155 -94,-185l0 0c-1,-1 -2,-2 -2,-4 0,-3 2,-5 5,-5l108 1c7,-21 4,-52 -6,-85 -11,-33 -29,-67 -54,-95 -1,-1 -2,-4 -1,-6 1,-2 4,-3 7,-2 33,14 54,26 70,40 16,14 27,30 41,50l0 0c13,18 26,39 38,59z"/>
    <path class="fil11" d="M693 2401l15 12 -37 46c-5,6 -9,10 -13,13 -5,3 -10,4 -16,4 -6,-1 -12,-3 -18,-8 -7,-6 -11,-13 -12,-20 -1,-7 2,-15 8,-22l16 9c-3,5 -5,8 -6,11 0,3 1,7 4,9 4,3 7,4 10,3 3,-1 6,-4 11,-10l38 -47zm40 149l-17 -12 6 -22 -30 -23 -19 12 -16 -12 85 -53 17 12 -26 98zm-6 -51l10 -36 -31 21 21 15zm24 64l23 -33 2 -64 18 12 -2 44 39 -19 18 13 -60 25 -22 33 -16 -11zm114 74l-17 -11 4 -22 -32 -20 -18 14 -17 -11 81 -60 17 10 -18 100zm-10 -50l8 -37 -30 23 22 14zm46 71l44 -84 17 9 -20 37 54 -19 22 11 -48 17 7 68 -22 -11 -3 -52 -21 7 -13 26 -17 -9zm162 78l-18 -8 1 -23 -34 -16 -16 16 -19 -8 73 -71 18 9 -5 101zm-16 -48l3 -38 -26 27 23 11zm26 51l31 -89 38 13c9,3 16,7 20,10 3,3 6,7 7,12 1,5 1,10 -1,15 -2,7 -6,12 -12,15 -5,3 -12,4 -20,2 3,4 6,7 7,11 2,3 3,9 5,18l5 21 -21 -8 -7 -24c-2,-8 -3,-13 -5,-16 -1,-2 -2,-4 -4,-5 -1,-2 -4,-3 -8,-5l-4 -1 -13 37 -18 -6zm36 -45l13 5c9,3 14,4 17,4 2,0 4,-1 6,-2 2,-1 3,-3 4,-6 1,-3 1,-6 0,-8 -1,-2 -3,-4 -5,-6 -2,-1 -6,-2 -13,-5l-14 -5 -8 23zm58 45l18 3c-1,6 0,11 3,15 2,4 6,7 12,8 6,2 10,2 14,0 4,-1 6,-4 7,-7 1,-2 1,-4 0,-6 -1,-2 -3,-4 -6,-6 -2,-1 -6,-4 -13,-8 -9,-5 -15,-10 -18,-15 -4,-7 -5,-14 -3,-21 1,-4 4,-8 8,-12 4,-3 8,-5 14,-5 5,-1 11,0 18,2 12,3 20,8 24,15 4,6 5,14 3,22l-19 -4c1,-5 0,-9 -2,-12 -2,-3 -5,-5 -10,-6 -6,-2 -10,-2 -14,-1 -2,1 -3,3 -4,5 -1,2 0,4 1,6 2,3 7,7 15,11 8,5 14,9 18,13 3,3 6,7 7,12 1,4 1,9 -1,15 -1,5 -4,10 -8,14 -4,3 -9,5 -15,6 -6,1 -13,0 -21,-2 -11,-4 -19,-9 -24,-16 -5,-7 -6,-16 -4,-26zm164 69l-20 -3 -4 -23 -37 -7 -12 20 -20 -4 53 -86 20 4 20 99zm-27 -43l-7 -36 -19 32 26 4zm68 49l7 -94 29 2 12 65 21 -63 29 3 -7 94 -18 -2 6 -74 -24 73 -19 -1 -13 -76 -5 74 -18 -1zm195 4l-21 1 -9 -21 -37 1 -7 22 -21 0 34 -95 20 -1 41 93zm-36 -36l-15 -34 -11 35 26 -1zm46 35l-8 -94 19 -1 4 41 34 -45 26 -2 -33 40 43 54 -25 2 -29 -42 -14 17 2 28 -19 2zm178 -27l-21 4 -12 -19 -37 7 -3 23 -20 4 18 -100 19 -4 56 85zm-42 -30l-19 -31 -6 36 25 -5zm51 27l-23 -91 39 -10c10,-3 17,-4 22,-3 5,0 9,2 13,6 4,4 6,8 7,13 2,7 2,13 -1,19 -3,5 -8,10 -16,13 4,1 8,3 12,5 3,2 8,6 14,12l15 15 -22 6 -18 -17c-6,-6 -11,-9 -13,-11 -2,-1 -4,-2 -6,-2 -3,0 -6,0 -10,1l-4 1 10 38 -19 5zm6 -57l13 -4c9,-2 14,-4 16,-5 2,-1 4,-3 5,-5 0,-2 0,-5 0,-8 -1,-3 -2,-5 -5,-6 -2,-2 -4,-3 -7,-2 -2,0 -6,1 -14,3l-14 3 6 24zm104 24l-13 -37 -51 -39 21 -8 33 27 8 -42 21 -8 -14 64 13 37 -18 6zm127 -50l-19 8 -16 -17 -35 15 1 23 -19 7 -2 -101 18 -7 72 72zm-47 -21l-26 -27 2 37 24 -10zm84 2l-44 -83 27 -15c10,-5 17,-8 20,-9 6,-1 11,-1 17,2 5,2 9,7 13,13 3,6 4,10 4,15 0,4 -1,8 -3,12 -2,3 -4,6 -6,8 -4,3 -9,7 -17,11l-11 6 17 31 -17 9zm-20 -78l13 23 9 -4c6,-4 10,-7 12,-9 2,-2 3,-4 3,-7 1,-2 0,-5 -1,-7 -2,-3 -4,-5 -7,-6 -3,-1 -6,-1 -9,0 -2,0 -6,2 -12,6l-8 4zm97 36l-48 -81 35 -21c8,-5 15,-8 20,-9 5,0 9,0 14,3 4,2 8,6 11,10 4,6 5,13 3,19 -1,6 -5,11 -11,16 5,0 9,1 13,2 3,1 9,4 17,8l19 10 -20 11 -22 -10c-8,-4 -13,-6 -16,-7 -2,-1 -4,-1 -7,-1 -2,1 -5,2 -8,4l-4 2 20 34 -16 10zm-11 -57l12 -7c8,-4 12,-8 14,-9 2,-2 2,-4 3,-7 0,-2 -1,-4 -2,-7 -2,-2 -4,-4 -6,-5 -3,-1 -6,-1 -8,0 -2,1 -6,3 -13,7l-12 8 12 20zm161 -41l-16 11 -19 -13 -31 22 6 22 -17 12 -24 -98 16 -12 85 56zm-50 -11l-30 -21 9 36 21 -15zm28 -91l15 -12 37 48c4,6 7,11 9,15 2,6 2,12 0,17 -2,6 -6,11 -12,16 -8,5 -15,8 -22,6 -7,-1 -14,-5 -20,-13l13 -13c4,4 6,7 9,8 4,1 7,1 10,-2 4,-2 5,-5 5,-8 0,-3 -2,-8 -7,-14l-37 -48zm154 -3l-16 13 -20 -11 -29 24 8 21 -16 13 -32 -96 16 -13 89 49zm-51 -7l-32 -18 12 35 20 -17z"/>
    <path class="fil12" d="M2468 2472c15,14 21,42 32,65l-75 -29 43 -36z"/>
    <path class="fil13" d="M2471 2468c11,11 18,27 25,45 2,7 5,14 9,21 1,3 0,6 -3,7 -1,1 -3,1 -4,0l0 0 -75 -28c-2,-1 -4,-4 -3,-7 1,-1 1,-2 2,-2l43 -36c2,-2 5,-2 6,0zm15 48c-5,-14 -11,-28 -19,-37l-32 27 56 21c-2,-3 -3,-7 -5,-11z"/>
    <path class="fil12" d="M529 2479c-11,-6 -23,40 -31,62l74 -26 -43 -36z"/>
    <path class="fil13" d="M527 2483c-1,1 -3,3 -5,7 -5,9 -9,24 -13,36l-2 7 55 -20 -35 -30zm-14 3c5,-10 11,-15 18,-12l0 0 0 0c1,0 1,1 1,1l43 36c1,0 1,1 2,2 1,3 -1,6 -3,7l-74 26 0 0c-1,0 -2,0 -3,0 -3,-1 -4,-4 -3,-7 1,-4 3,-10 5,-16 4,-13 9,-27 14,-37z"/>
    <path class="fil11" d="M2361 2238l2 0c2,0 4,1 5,3l25 56 75 168c1,2 0,5 -1,6 -311,276 -638,416 -966,417 -326,2 -653,-133 -968,-407 -1,-2 -2,-4 -1,-6l98 -229c1,-3 4,-4 7,-3 0,1 1,1 1,1l0 0c280,271 571,405 861,404 291,-1 582,-138 859,-409 1,-1 2,-1 3,-1l0 0zm22 63l-22 -51c-278,270 -569,407 -862,408 -290,1 -582,-132 -862,-401l-94 218c312,271 636,405 958,403 325,-2 648,-140 956,-412l-74 -165z"/>
   </g>
  </g>
  <polygon class="fil7" points="0,0 3000,0 3000,3000 0,3000 "/>
 </g>
</svg>
