<?xml version="1.0" encoding="UTF-8" standalone="no"?>
<svg
   xmlns:dc="http://purl.org/dc/elements/1.1/"
   xmlns:cc="http://creativecommons.org/ns#"
   xmlns:rdf="http://www.w3.org/1999/02/22-rdf-syntax-ns#"
   xmlns:svg="http://www.w3.org/2000/svg"
   xmlns="http://www.w3.org/2000/svg"
   xmlns:xlink="http://www.w3.org/1999/xlink"
   xmlns:sodipodi="http://sodipodi.sourceforge.net/DTD/sodipodi-0.dtd"
   xmlns:inkscape="http://www.inkscape.org/namespaces/inkscape"
   width="214.084"
   height="243.81"
   viewBox="0 0 56.643 64.508"
   version="1.1"
   id="svg185"
   sodipodi:docname="Seal of Tasikmalaya Regency (1).svg"
   inkscape:version="1.0.1 (3bc2e813f5, 2020-09-07)">
  <metadata
     id="metadata189">
    <rdf:RDF>
      <cc:Work
         rdf:about="">
        <dc:format>image/svg+xml</dc:format>
        <dc:type
           rdf:resource="http://purl.org/dc/dcmitype/StillImage" />
      </cc:Work>
    </rdf:RDF>
  </metadata>
  <sodipodi:namedview
     pagecolor="#ffffff"
     bordercolor="#666666"
     borderopacity="1"
     objecttolerance="10"
     gridtolerance="10"
     guidetolerance="10"
     inkscape:pageopacity="0"
     inkscape:pageshadow="2"
     inkscape:window-width="1366"
     inkscape:window-height="705"
     id="namedview187"
     showgrid="false"
     inkscape:zoom="1.8454328"
     inkscape:cx="92.23766"
     inkscape:cy="134.08129"
     inkscape:window-x="-8"
     inkscape:window-y="-8"
     inkscape:window-maximized="1"
     inkscape:current-layer="svg185"
     inkscape:snap-bbox="true"
     inkscape:bbox-paths="true"
     inkscape:bbox-nodes="true"
     inkscape:snap-bbox-midpoints="true"
     inkscape:snap-bbox-edge-midpoints="true"
     inkscape:object-paths="true"
     inkscape:snap-intersection-paths="true"
     inkscape:snap-smooth-nodes="true"
     inkscape:snap-midpoints="true" />
  <style
     id="style2"><![CDATA[.B{opacity:.999}.C{opacity:.998}.D{stroke:#d0c600}.E{stroke-linejoin:round}.F{fill-rule:evenodd}.G{stroke-width:.829}.H{stroke-linecap:round}]]></style>
  <defs
     id="defs51">
    <linearGradient
       id="A"
       x1="0"
       y1="0"
       x2="56.643002"
       y2="0"
       gradientUnits="userSpaceOnUse"
       spreadMethod="pad">
      <stop
         offset="0"
         stop-color="#d9cf00"
         id="stop4" />
      <stop
         offset="1"
         stop-color="#fff300"
         id="stop6" />
    </linearGradient>
    <linearGradient
       id="B"
       x1="0"
       y1="0"
       x2="56.643002"
       y2="0"
       gradientUnits="userSpaceOnUse"
       spreadMethod="pad">
      <stop
         offset="0"
         stop-color="#fff300"
         id="stop9" />
      <stop
         offset=".462"
         stop-color="#fffbb3"
         id="stop11" />
      <stop
         offset="1"
         stop-color="#fff300"
         id="stop13" />
    </linearGradient>
    <linearGradient
       id="C"
       x1="105"
       y1="160.228"
       x2="105"
       y2="189.22701"
       gradientTransform="translate(-76.678,-138.67)"
       gradientUnits="userSpaceOnUse"
       spreadMethod="pad">
      <stop
         offset="0"
         stop-color="#fff300"
         id="stop16" />
      <stop
         offset="1"
         stop-color="#228b22"
         id="stop18" />
    </linearGradient>
    <linearGradient
       id="D"
       x1="362.14"
       y1="548.008"
       x2="362.14"
       y2="637.911"
       xlink:href="#W"
       gradientTransform="matrix(0.26458333,0,0,0.26458333,-76.678,-138.67)">
      <stop
         offset="0"
         stop-color="#1e90ff"
         id="stop21" />
      <stop
         offset="1"
         stop-color="#00008b"
         id="stop23" />
    </linearGradient>
    <linearGradient
       xlink:href="#B"
       id="E"
       x1="1058.6271"
       y1="791.58319"
       x2="1064.8634"
       y2="791.58319"
       gradientTransform="scale(0.60353282,1.6569107)"
       gradientUnits="userSpaceOnUse" />
    <linearGradient
       xlink:href="#B"
       id="F"
       x1="1058.6271"
       y1="774.80136"
       x2="1064.8634"
       y2="774.80136"
       gradientTransform="scale(0.60353282,1.6569107)"
       gradientUnits="userSpaceOnUse" />
    <linearGradient
       xlink:href="#B"
       id="G"
       x1="1058.6271"
       y1="784.86711"
       x2="1064.8634"
       y2="784.86711"
       gradientTransform="scale(0.60353282,1.6569107)"
       gradientUnits="userSpaceOnUse" />
    <linearGradient
       xlink:href="#B"
       id="H"
       x1="7212.7168"
       y1="668.8322"
       x2="7301.8115"
       y2="668.8322"
       gradientTransform="scale(0.60354027,1.6568903)"
       gradientUnits="userSpaceOnUse" />
    <linearGradient
       xlink:href="#A"
       id="I"
       x1="89.184059"
       y1="191.77165"
       x2="86.348816"
       y2="187.91852"
       gradientTransform="scale(1.0134476,0.98673085)"
       gradientUnits="userSpaceOnUse" />
    <linearGradient
       xlink:href="#A"
       id="J"
       x1="117.91351"
       y1="191.89442"
       x2="120.86565"
       y2="187.91852"
       gradientTransform="scale(1.0134476,0.98673085)"
       gradientUnits="userSpaceOnUse" />
    <linearGradient
       id="K"
       x1="87.313"
       y1="189.497"
       x2="122.687"
       y2="189.497"
       xlink:href="#W">
      <stop
         offset="0"
         stop-color="#fff300"
         id="stop32" />
      <stop
         offset=".5"
         stop-color="#fff978"
         id="stop34" />
      <stop
         offset="1"
         stop-color="#fff300"
         id="stop36" />
    </linearGradient>
    <path
       id="L"
       d="M88.575 143.831h.504v1.009l.946-1.009h.662l-1.004 1.009 1.056 1.441h-.658l-.756-1.071-.244.251v.82h-.504z" />
    <path
       id="M"
       d="M91.695 145.356h.622l-.306-.964zm.032-1.524h.579l.868 2.45h-.555l-.158-.504h-.903l-.17.504h-.535zm.286 0z" />
    <path
       id="N"
       d="M89.922 138.82l-.209.174-12.844 10.715.295.539c1.579 2.892 2.115 6.437 2.031 10.389v.008 17.873.002c.037 6.012 2.253 9.928 4.543 12.314s4.724 3.301 4.94 3.385c7.718 2.985 11.966 4.933 15.828 8.326l.494.434.495-.434c3.862-3.393 8.11-5.341 15.828-8.326.216-.083 2.651-.998 4.941-3.385s4.504-6.303 4.541-12.314v-.002-17.873-.008c-.084-3.951.451-7.497 2.031-10.389l.295-.539-13.051-10.889H105zm.541 1.496H105h14.537l11.778 9.826c-1.523 3.093-2.086 6.66-2.004 10.525v17.842c-.035 5.653-2.063 9.139-4.127 11.289s-4.096 2.908-4.4 3.026c-7.447 2.88-11.849 4.904-15.784 8.219-3.935-3.315-8.336-5.338-15.783-8.219-.304-.118-2.337-.875-4.4-3.026s-4.089-5.634-4.125-11.285v-.004-17.842c.082-3.865-.483-7.433-2.006-10.525z" />
    <path
       id="O"
       d="M80.599 170.15c1.453-1.57 3.106-2.319 5.136-2.359s4.338 1.329 7.537 1.295 3.349-.911 5.983-.911 2.398.693 5.746.986c3.347-.293 3.113-.986 5.746-.986s2.784.877 5.983.911 5.507-1.335 7.537-1.295 3.683.789 5.136 2.359" />
    <path
       id="P"
       d="M105 181.656v4.262c-1.98.312-3.751 3.689-7.509-.109.569-.032.983-.18 1.367-.35-1.27-.026-2.501-.193-3.54-1.051.561-.058 1.279.041 1.542-.315-1.758-.508-2.279-1.429-3.119-2.243.558.274 1.101.438 1.612.386-.852-.749-1.671-1.545-1.928-3.119.461.398.955.742 1.647.771-.381-.624-1.644-4.556 1.016-5.713 2.372-1.031 2.189 2.983.07 1.717-.682.901-.263 2.113-.035 2.418 1.002 1.565 5.134 2.411 8.876 3.347z" />
    <path
       id="Q"
       d="M105 181.656v2.131c-2.562 1.912-4.561 2.431-5.605.582.72.022 1.144-.179 1.611-.347-1.462.176-2.957.401-3.197-1.289 1.472.128 1.636.039 2.404.05-1.44-.304-3.308.368-3.643-2.453 1.002.844 2.051.605 3.197.669-1.966.143-3.771-.97-3.642-2.689.886.492 1.519 1.127 4.805 1.069 2.338-.042 2.802 1.419 4.071 2.278z" />
    <path
       id="R"
       d="M102.748 181.498c-1.316.851.294 2.314 2.252 1.223" />
    <path
       id="S"
       d="M103.227 185.861c-.861.394-1.756.703-2.701.784-.553.275-2.225-.383-1.014-.707-.158-.824-1.192-1.058-1.916-1.111-.443-.017-.571-.275-.144-.411.159-.857-1.267-1.106-1.489-1.47 1.184.147-.032-1.296-.515-1.522-.494-.081-1.17-1.303-.259-.838.965.124.39-1.428.238-2.001-.175-.512-.163-.525-.02.022.185.857.873 1.525.921 2.43.038.792.493 1.436.987 2.011.303.976 1.19 1.332 1.936 1.817.419.891 1.436 1.328 2.383 1.08.321.048 1.871-.791 1.595-.083z" />
    <path
       id="T"
       d="M96.207 174.679c-.384.175-.786.388-1.025.748-.123.336-.061.705-.112 1.053-.019.113.016.379.043.117.002-.279.083-.56.301-.747.24-.185.461-.419.76-.504.293-.135.542.268.819.086.129-.177.241-.55-.005-.68-.252-.066-.519-.122-.78-.074z" />
    <path
       id="U"
       d="M100.861 179.956c-.843-.2-1.737.028-2.564-.239.404.437 1.063.747 1.685.651.745-.125.999.941.248 1.133-.384.299-1.414-.193-1.415.326.641.417 1.444.14 2.128.35.535.511-.303 1.165-.856.926-.869.165.629.462.935.29.634-.348 1.387.267.711.827-.182.208-1.323.324-.517.401a2.54 2.54 0 0 0 1.957-.59c-.063-.483-.943-.466-1.117-1.036-.478-.427-.776-1.085-.483-1.71.185-.632.987-.579 1.487-.421.609.19-.319 1.662.531 1.052.349-.566-.258-1.005-.55-1.42-.418-.412-1.077-.315-1.615-.42-.19-.026-.393-.016-.563-.119z" />
    <path
       id="V"
       d="M202.677 187.511h1.805v5.561h-1.805z" />
    <linearGradient
       id="W"
       gradientUnits="userSpaceOnUse" />
    <linearGradient
       inkscape:collect="always"
       xlink:href="#B"
       id="linearGradient1089"
       x1="202.50349"
       y1="170.72588"
       x2="204.65601"
       y2="170.72588"
       gradientUnits="userSpaceOnUse" />
    <linearGradient
       inkscape:collect="always"
       xlink:href="#B"
       id="linearGradient1099"
       x1="475.56049"
       y1="47.972054"
       x2="483.6955"
       y2="47.972054"
       gradientUnits="userSpaceOnUse" />
  </defs>
  <path
     d="m 13.785,1.646 h 14.537 14.537 l 11.777,9.826 c -1.523,3.093 -2.086,6.661 -2.004,10.525 v 17.842 c -0.035,5.653 -2.063,9.139 -4.127,11.289 -2.064,2.15 -4.096,2.908 -4.4,3.025 -7.447,2.88 -11.849,4.904 -15.783,8.219 C 24.387,59.057 19.986,57.034 12.539,54.153 12.235,54.035 10.202,53.278 8.139,51.128 6.076,48.978 4.05,45.494 4.014,39.843 V 39.839 21.997 C 4.096,18.132 3.531,14.565 2.008,11.472 Z"
     fill="url(#C)"
     class="B"
     id="path53"
     style="fill:url(#C)" />
  <use
     xlink:href="#L"
     id="use55"
     x="0"
     y="0"
     width="100%"
     height="100%"
     transform="translate(-76.678,-138.67)" />
  <use
     xlink:href="#M"
     id="use57"
     x="0"
     y="0"
     width="100%"
     height="100%"
     transform="translate(-76.678,-138.67)" />
  <path
     d="m 17.303,5.587 v 0.54 h 0.602 q 0.161,0 0.261,-0.06 0.101,-0.061 0.101,-0.216 0,-0.171 -0.133,-0.226 -0.115,-0.038 -0.293,-0.038 z m 0,0.946 v 0.653 h 0.602 q 0.161,0 0.251,-0.043 0.163,-0.08 0.163,-0.306 0,-0.191 -0.158,-0.263 -0.088,-0.04 -0.248,-0.042 z m 0.702,-1.372 q 0.451,0.007 0.638,0.261 0.113,0.156 0.113,0.374 0,0.224 -0.113,0.361 -0.063,0.077 -0.186,0.14 0.188,0.068 0.283,0.216 0.096,0.148 0.096,0.359 0,0.218 -0.11,0.391 -0.07,0.115 -0.175,0.193 -0.118,0.09 -0.279,0.123 -0.16,0.033 -0.347,0.033 h -1.111 v -2.45 z"
     id="path59" />
  <path
     d="m 19.218,7.117 h 0.504 V 7.612 H 19.218 Z M 22.937,5.161 V 5.595 H 22.204 V 7.612 H 21.689 V 5.595 H 20.953 V 5.161 Z"
     id="path61" />
  <use
     xlink:href="#M"
     x="8.6389999"
     id="use63"
     y="0"
     width="100%"
     height="100%"
     transform="translate(-76.678,-138.67)" />
  <path
     d="m 25.815,6.855 q 0.023,0.168 0.091,0.251 0.125,0.151 0.427,0.151 0.181,0 0.294,-0.04 0.214,-0.077 0.214,-0.284 0,-0.121 -0.106,-0.188 Q 26.629,6.68 26.401,6.63 L 26.142,6.572 Q 25.76,6.485 25.613,6.384 q -0.248,-0.17 -0.248,-0.53 0,-0.329 0.239,-0.547 0.239,-0.218 0.703,-0.218 0.387,0 0.66,0.206 0.274,0.204 0.288,0.595 H 26.763 Q 26.75,5.669 26.57,5.576 26.45,5.515 26.272,5.515 q -0.198,0 -0.316,0.08 -0.118,0.08 -0.118,0.223 0,0.131 0.116,0.196 0.075,0.043 0.319,0.101 l 0.422,0.101 q 0.278,0.066 0.419,0.178 0.219,0.173 0.219,0.5 0,0.336 -0.258,0.559 -0.256,0.221 -0.725,0.221 -0.479,0 -0.753,-0.218 -0.274,-0.219 -0.274,-0.602 z m 0.497,-1.769 z m 1.872,2.526 h -0.509 v -2.45 h 0.509 z M 27.93,5.113 Z"
     id="path65" />
  <use
     xlink:href="#L"
     x="16.773001"
     id="use67"
     y="0"
     width="100%"
     height="100%"
     transform="translate(-76.678,-138.67)" />
  <path
     d="m 32.744,5.161 h 0.736 v 2.45 H 33.003 V 5.954 q 0,-0.071 0.002,-0.2 0.002,-0.13 0.002,-0.2 L 32.543,7.61 H 32.046 L 31.585,5.554 q 0,0.07 0.002,0.2 0.002,0.128 0.002,0.2 v 1.657 h -0.477 v -2.45 h 0.745 l 0.446,1.927 z"
     id="path69" />
  <use
     xlink:href="#M"
     x="19.608999"
     id="use71"
     y="0"
     width="100%"
     height="100%"
     transform="translate(-76.678,-138.67)" />
  <path
     d="m 36.415,5.161 h 0.512 v 2.01 h 1.214 v 0.441 h -1.726 z m 2.75,1.525 h 0.622 L 39.481,5.722 Z m 0.032,-1.524 h 0.579 l 0.868,2.45 H 40.089 L 39.931,7.108 h -0.903 l -0.17,0.504 h -0.536 z m 0.286,0 z m 2.556,-0.001 h 0.58 L 41.799,6.69 V 7.611 H 41.287 V 6.69 L 40.439,5.161 h 0.603 l 0.509,1.067 z m -0.509,0 z"
     id="path73" />
  <use
     xlink:href="#M"
     x="28.253"
     id="use75"
     y="0"
     width="100%"
     height="100%"
     transform="translate(-76.678,-138.67)" />
  <path
     d="M 17.172088,9.1188398 15.28217,11.008759 12.581038,9.9319044 3.8172448,17.792411 c 0.1500188,1.216025 0.2114021,2.474118 0.2005542,3.765549 h 48.610043 c -0.0042,-0.48895 0.0024,-0.972343 0.02011,-1.450975 z"
     fill="url(#D)"
     id="path77"
     style="fill:url(#D);stroke-width:0.264583" />
  <g
     stroke="#ffffff"
     class="G"
     id="g89"
     transform="translate(-76.678,-138.67)">
    <g
       fill="none"
       id="g85">
      <path
         d="M 105,189.227 H 84.198 l 13.513,-22.445 m -6.993,0 -10.489,16.536"
         id="path79" />
      <path
         d="M 79.851,177.467 H 105 m -24.96,-5.68 H 105 m 0,17.44 h 20.803 L 112.29,166.782 m 6.993,0 10.489,16.536"
         id="path81" />
      <path
         d="M 130.15,177.467 H 105 m 24.961,-5.68 H 105"
         id="path83" />
    </g>
    <path
       d="M 105,189.227 V 171.788"
       fill="none"
       id="path87" />
  </g>
  <use
     xlink:href="#N"
     fill="#d9d9d9"
     stroke="#404040"
     stroke-width="0.3"
     class="B"
     id="use91"
     x="0"
     y="0"
     width="100%"
     height="100%"
     transform="translate(-76.678,-138.67)" />
  <g
     id="g1107">
    <path
       d="m 10.552,19.561 v 1.997 H 4.018 v 0.702 h 6.534 2.599 7.323 0.661 14.373 0.661 7.324 2.598 6.536 v -0.702 h -6.536 v -1.997 h -2.598 v 1.997 h -6.397 c 0.024,-0.085 0.041,-0.173 0.041,-0.267 v -0.762 c 0,-0.537 -0.432,-0.969 -0.968,-0.969 h -0.661 c -0.537,0 -0.968,0.432 -0.968,0.969 v 0.762 c 0,0.093 0.017,0.182 0.041,0.267 H 22.063 c 0.024,-0.085 0.041,-0.173 0.041,-0.267 v -0.762 c 0,-0.537 -0.432,-0.969 -0.969,-0.969 h -0.661 c -0.537,0 -0.968,0.432 -0.968,0.969 v 0.762 c 0,0.093 0.017,0.182 0.041,0.267 h -6.396 v -1.997 z"
       fill="#ffffff"
       class="B F"
       id="path93" />
    <path
       d="m 3.921,22.26 v 10.858 c 1.453,-1.57 3.106,-2.319 5.136,-2.359 2.03,-0.04 4.338,1.329 7.537,1.295 3.199,-0.034 3.349,-0.911 5.983,-0.911 2.634,0 2.398,0.693 5.746,0.986 3.347,-0.293 3.113,-0.986 5.746,-0.986 2.633,0 2.784,0.877 5.983,0.911 3.199,0.034 5.507,-1.335 7.537,-1.295 2.03,0.04 3.683,0.789 5.136,2.359 V 22.26 H 28.322 Z"
       fill="#1e90ff"
       id="path95" />
    <g
       stroke="#ffffff"
       fill="none"
       stroke-width="0.67"
       id="g103"
       transform="translate(-76.678,-138.67)">
      <use
         xlink:href="#O"
         id="use97"
         x="0"
         y="0"
         width="100%"
         height="100%" />
      <use
         xlink:href="#O"
         y="-2.9159999"
         id="use99"
         x="0"
         width="100%"
         height="100%" />
      <use
         xlink:href="#O"
         y="-5.2719998"
         id="use101"
         x="0"
         width="100%"
         height="100%" />
    </g>
  </g>
  <use
     xlink:href="#N"
     fill="#d9d9d9"
     stroke="#404040"
     stroke-width="0.3"
     class="B"
     id="use105"
     x="0"
     y="0"
     width="100%"
     height="100%"
     transform="translate(-76.678,-138.67)" />
  <path
     d="M 13.394,0.568 13.302,0.644 0.722,11.14 0.853,11.376 a 0.418,0.418 0 0 1 0,0.002 c 1.628,2.98 2.166,6.598 2.082,10.588 v 0.008 17.873 0.002 c 0.037,5.909 2.201,9.707 4.426,12.025 1.112,1.159 2.261,1.962 3.156,2.484 0.895,0.522 1.511,0.754 1.633,0.801 7.727,2.989 12.037,4.96 15.953,8.4 l 0.219,0.193 0.219,-0.193 c 3.916,-3.441 8.227,-5.412 15.953,-8.4 0.122,-0.047 0.737,-0.279 1.633,-0.801 a 14.59,14.59 0 0 0 3.158,-2.484 c 2.225,-2.318 4.387,-6.116 4.424,-12.025 V 39.847 21.976 21.974 21.966 c -0.084,-3.99 0.454,-7.608 2.082,-10.588 a 0.418,0.418 0 0 1 0,-0.002 L 55.922,11.14 43.252,0.568 h -14.93 z m 0.371,0.66 a 0.418,0.418 0 0 1 0.02,0 h 14.537 14.537 a 0.418,0.418 0 0 1 0.268,0.098 l 11.777,9.826 a 0.418,0.418 0 0 1 0.107,0.504 c -1.485,3.015 -2.042,6.513 -1.961,10.332 a 0.418,0.418 0 0 1 0,0.01 V 39.84 a 0.418,0.418 0 0 1 0,0.002 c -0.036,5.752 -2.119,9.362 -4.244,11.576 -2.125,2.214 -4.268,3.016 -4.551,3.125 -7.437,2.877 -11.783,4.88 -15.664,8.15 a 0.418,0.418 0 0 1 -0.539,0 C 24.171,59.423 19.825,57.419 12.388,54.543 12.105,54.434 9.962,53.632 7.837,51.418 5.712,49.204 3.631,45.595 3.595,39.846 a 0.418,0.418 0 0 1 0,-0.002 V 39.84 21.998 a 0.418,0.418 0 0 1 0,-0.01 C 3.676,18.169 3.117,14.671 1.632,11.656 A 0.418,0.418 0 0 1 1.739,11.152 L 13.516,1.326 a 0.418,0.418 0 0 1 0.248,-0.098 z"
     fill="#ffffff"
     class="B"
     id="path107" />
  <g
     id="g1188">
    <use
       xlink:href="#P"
       class="B"
       id="use109"
       x="0"
       y="0"
       width="100%"
       height="100%"
       style="fill:#fff300;stroke:#d0c600;stroke-width:0.4"
       transform="translate(-76.678,-138.67)" />
    <use
       xlink:href="#Q"
       class="B"
       id="use111"
       x="0"
       y="0"
       width="100%"
       height="100%"
       style="fill:#fff300;stroke:#d0c600;stroke-width:0.4"
       transform="translate(-76.678,-138.67)" />
    <use
       xlink:href="#R"
       class="B H"
       id="use113"
       x="0"
       y="0"
       width="100%"
       height="100%"
       style="fill:#fff300;stroke:#d0c600;stroke-width:0.4"
       transform="translate(-76.678,-138.67)" />
    <use
       xlink:href="#S"
       id="use117"
       x="0"
       y="0"
       width="100%"
       height="100%"
       style="fill:#fff871"
       transform="translate(-76.678,-138.67)" />
    <use
       xlink:href="#T"
       id="use119"
       x="0"
       y="0"
       width="100%"
       height="100%"
       style="fill:#fff871"
       transform="translate(-76.678,-138.67)" />
    <use
       xlink:href="#U"
       id="use121"
       x="0"
       y="0"
       width="100%"
       height="100%"
       style="fill:#fff871"
       transform="translate(-76.678,-138.67)" />
    <use
       xlink:href="#P"
       class="B"
       id="use125"
       x="0"
       y="0"
       width="100%"
       height="100%"
       style="fill:#fff300;stroke:#d0c600;stroke-width:0.4"
       transform="matrix(-1,0,0,1,133.32205,-138.66999)" />
    <use
       xlink:href="#Q"
       class="B"
       id="use127"
       x="0"
       y="0"
       width="100%"
       height="100%"
       style="fill:#fff300;stroke:#d0c600;stroke-width:0.4"
       transform="matrix(-1,0,0,1,133.32205,-138.66999)" />
    <use
       xlink:href="#R"
       class="B H"
       id="use129"
       x="0"
       y="0"
       width="100%"
       height="100%"
       style="fill:#fff300;stroke:#d0c600;stroke-width:0.4"
       transform="matrix(-1,0,0,1,133.32205,-138.66999)" />
    <use
       xlink:href="#S"
       id="use133"
       x="0"
       y="0"
       width="100%"
       height="100%"
       style="fill:#fff871"
       transform="matrix(-1,0,0,1,133.32205,-138.66999)" />
    <use
       xlink:href="#T"
       id="use135"
       x="0"
       y="0"
       width="100%"
       height="100%"
       style="fill:#fff871"
       transform="matrix(-1,0,0,1,133.32205,-138.66999)" />
    <use
       xlink:href="#U"
       id="use137"
       x="0"
       y="0"
       width="100%"
       height="100%"
       style="fill:#fff871"
       transform="matrix(-1,0,0,1,133.32205,-138.66999)" />
  </g>
  <g
     transform="translate(-175.258,-138.67)"
     class="D F E"
     id="g163"
     style="fill-opacity:1.0;fill:url(#linearGradient1089)">
    <g
       stroke-width="0.347"
       id="g157"
       style="fill-opacity:1.0;fill:url(#linearGradient1089)">
      <use
         xlink:href="#V"
         fill="url(#E)"
         class="C"
         id="use143"
         style="fill:url(#linearGradient1089);fill-opacity:1.0"
         x="0"
         y="0"
         width="100%"
         height="100%" />
      <use
         xlink:href="#V"
         y="-5.5609999"
         fill="url(#F)"
         class="C"
         id="use145"
         style="fill:url(#linearGradient1089);fill-opacity:1.0"
         x="0"
         width="100%"
         height="100%" />
      <use
         xlink:href="#V"
         y="-11.122"
         fill="url(#G)"
         class="C"
         id="use147"
         style="fill:url(#linearGradient1089);fill-opacity:1.0"
         x="0"
         width="100%"
         height="100%" />
      <use
         xlink:href="#V"
         y="-16.683001"
         fill="url(#G)"
         class="C"
         id="use149"
         style="fill:url(#linearGradient1089);fill-opacity:1.0"
         x="0"
         width="100%"
         height="100%" />
      <use
         xlink:href="#V"
         y="-22.245001"
         fill="url(#F)"
         class="C"
         id="use151"
         style="fill:url(#linearGradient1089);fill-opacity:1.0"
         x="0"
         width="100%"
         height="100%" />
      <use
         xlink:href="#V"
         y="-27.806"
         fill="url(#F)"
         class="C"
         id="use153"
         style="fill:url(#linearGradient1089);fill-opacity:1.0"
         x="0"
         width="100%"
         height="100%" />
      <use
         xlink:href="#V"
         y="-33.367001"
         fill="url(#F)"
         class="C"
         id="use155"
         style="fill:url(#linearGradient1089);fill-opacity:1.0"
         x="0"
         width="100%"
         height="100%" />
    </g>
    <path
       d="m 476.325,44.909 -0.108,13.573 h 6.822 v -21.02 z"
       transform="matrix(0.264583,0,0,0.264583,76.678405,138.67047)"
       fill="url(#H)"
       stroke-width="1.313"
       class="C"
       id="path159"
       style="fill:url(#linearGradient1099);fill-opacity:1.0" />
    <path
       transform="matrix(0.714646,-0.699486,0,1,0,0)"
       d="m 286.131,348.727 c 0,0.311 -0.588,0.795 -1.263,0.795 -0.675,0 -1.223,-0.252 -1.223,-0.564 0,-0.312 0.547,-0.564 1.223,-0.564 0.676,0 1.263,0.021 1.263,0.332 z"
       fill="#9b9300"
       stroke-width="0.432"
       class="C"
       id="path161"
       style="fill-opacity:1;fill:#000000" />
  </g>
  <g
     id="g1118">
    <g
       class="D"
       id="g173"
       transform="translate(-76.678,-138.67)">
      <g
         stroke-width="0.265"
         id="g169">
        <path
           d="m 83.836,184.815 c 2.086,0.525 2.73,2.491 3.618,4.213 0.898,2.321 4.31,-0.175 4.436,-1.363 -0.806,-2.607 -2.726,-4.279 -5.179,-5.502 0.385,0.633 0.6,1.372 0.297,2.255 -1.057,-0.297 -2.115,-0.356 -3.172,0.397 z"
           fill="url(#I)"
           class="B"
           id="path165"
           style="fill:url(#I);fill-opacity:1" />
        <path
           d="m 126.164,184.815 c -2.086,0.525 -2.73,2.491 -3.618,4.213 -0.898,2.321 -4.31,-0.175 -4.436,-1.363 0.806,-2.607 2.726,-4.279 5.179,-5.502 -0.385,0.633 -0.6,1.372 -0.297,2.255 1.057,-0.297 2.115,-0.356 3.172,0.397 z"
           fill="url(#J)"
           class="B"
           id="path167"
           style="fill:url(#J);fill-opacity:1" />
      </g>
      <path
         d="m 90.632,183.52 -3.122,1.905 c 0.846,1.437 1.859,2.772 3.026,3.959 3.775,3.842 9.101,6.09 14.465,6.09 5.364,0 10.69,-2.25 14.465,-6.092 1.166,-1.187 2.18,-2.521 3.025,-3.957 l -3.123,-1.905 c -3.027,5.138 -8.481,8.283 -14.368,8.283 -5.887,0 -11.341,-3.145 -14.368,-8.283 z"
         fill="url(#K)"
         stroke-width="0.394"
         class="C E F"
         id="path171"
         style="fill:url(#K)" />
    </g>
    <path
       d="m 12.788,47.239 0.221,0.237 q -0.111,0.122 -0.118,0.238 -0.006,0.117 0.086,0.237 0.097,0.127 0.2,0.15 0.104,0.023 0.176,-0.032 0.046,-0.035 0.057,-0.088 0.012,-0.052 -0.015,-0.138 -0.019,-0.059 -0.105,-0.254 -0.11,-0.252 -0.099,-0.396 0.016,-0.202 0.17,-0.321 0.1,-0.076 0.229,-0.086 0.131,-0.01 0.257,0.061 0.127,0.072 0.242,0.222 0.188,0.245 0.175,0.451 -0.012,0.207 -0.187,0.351 l -0.213,-0.254 q 0.087,-0.094 0.088,-0.183 0.002,-0.089 -0.083,-0.2 -0.088,-0.115 -0.185,-0.143 -0.062,-0.019 -0.113,0.02 -0.046,0.035 -0.049,0.1 -0.004,0.082 0.098,0.308 0.102,0.227 0.123,0.356 0.023,0.129 -0.022,0.245 -0.043,0.116 -0.167,0.211 -0.112,0.086 -0.257,0.099 -0.145,0.013 -0.281,-0.064 -0.134,-0.078 -0.264,-0.247 -0.189,-0.247 -0.177,-0.467 0.013,-0.22 0.212,-0.414 z"
       id="path175" />
    <path
       d="m 14.642,47.823 0.225,0.243 -0.652,0.604 q -0.155,0.144 -0.193,0.195 -0.059,0.084 -0.051,0.184 0.01,0.1 0.105,0.202 0.096,0.103 0.186,0.117 0.091,0.013 0.163,-0.033 0.071,-0.046 0.214,-0.179 l 0.666,-0.617 0.225,0.243 -0.632,0.586 q -0.217,0.201 -0.325,0.264 -0.108,0.063 -0.219,0.067 -0.11,0.005 -0.229,-0.05 -0.118,-0.055 -0.251,-0.198 -0.16,-0.172 -0.203,-0.299 -0.042,-0.126 -0.027,-0.236 0.016,-0.111 0.071,-0.192 0.081,-0.12 0.283,-0.307 z m 0.035,2.415 1.091,-1.227 0.248,0.22 -0.484,0.545 0.985,-0.1 0.333,0.296 -0.887,0.067 -0.179,1.182 -0.32,-0.285 0.175,-0.875 -0.383,0.026 -0.33,0.371 z m 2.539,2.048 -0.29,-0.214 0.106,-0.385 -0.528,-0.389 -0.33,0.22 -0.283,-0.209 1.489,-0.941 0.282,0.208 z m -0.106,-0.885 0.18,-0.624 -0.54,0.359 z m 0.367,1.049 0.857,-1.4 0.454,0.278 q 0.258,0.158 0.323,0.227 0.101,0.105 0.117,0.261 0.017,0.155 -0.085,0.322 -0.079,0.129 -0.179,0.188 -0.101,0.059 -0.204,0.065 -0.102,0.006 -0.186,-0.024 -0.114,-0.042 -0.305,-0.159 l -0.184,-0.113 -0.323,0.528 z m 0.995,-0.99 -0.243,0.397 0.155,0.095 q 0.167,0.102 0.237,0.115 0.07,0.012 0.13,-0.015 0.061,-0.027 0.099,-0.089 0.047,-0.076 0.032,-0.154 -0.014,-0.077 -0.076,-0.132 -0.045,-0.041 -0.198,-0.134 z m 1.165,0.374 0.296,0.148 -0.398,0.795 q -0.095,0.189 -0.112,0.251 -0.026,0.1 0.017,0.19 0.045,0.09 0.169,0.152 0.126,0.063 0.216,0.044 0.09,-0.02 0.141,-0.089 0.051,-0.069 0.138,-0.243 l 0.406,-0.812 0.296,0.148 -0.386,0.771 q -0.132,0.264 -0.211,0.361 -0.079,0.097 -0.181,0.14 -0.102,0.043 -0.232,0.034 -0.13,-0.01 -0.304,-0.097 -0.21,-0.105 -0.295,-0.208 -0.084,-0.103 -0.108,-0.212 -0.024,-0.11 -10e-4,-0.205 0.034,-0.141 0.157,-0.387 z m 0.877,2.251 0.602,-1.527 0.649,0.256 q 0.245,0.097 0.339,0.182 0.095,0.085 0.121,0.216 0.025,0.131 -0.028,0.267 -0.068,0.172 -0.213,0.244 -0.145,0.072 -0.358,0.021 0.077,0.098 0.114,0.193 0.038,0.096 0.078,0.317 l 0.069,0.371 -0.369,-0.145 -0.092,-0.42 q -0.048,-0.225 -0.074,-0.288 -0.025,-0.064 -0.068,-0.1 -0.042,-0.037 -0.148,-0.079 l -0.062,-0.025 -0.251,0.637 z m 0.656,-0.759 0.228,0.09 q 0.222,0.088 0.284,0.091 0.063,0.003 0.112,-0.03 0.049,-0.034 0.076,-0.102 0.03,-0.077 0.007,-0.14 -0.022,-0.064 -0.092,-0.106 -0.035,-0.02 -0.223,-0.094 L 21.321,52.94 Z m 2.433,1.817 -0.346,-0.103 -0.031,-0.398 -0.629,-0.187 -0.236,0.319 -0.337,-0.1 1.081,-1.391 0.336,0.1 z m -0.399,-0.797 -0.043,-0.648 -0.386,0.52 z m 1.374,1.009 0.266,-1.62 0.318,0.052 0.485,1.191 0.178,-1.082 0.304,0.05 -0.266,1.62 -0.328,-0.054 -0.48,-1.163 -0.173,1.056 z m 2.567,-0.28 0.018,-0.276 0.713,0.048 -0.044,0.652 q -0.111,0.094 -0.314,0.157 -0.202,0.063 -0.404,0.049 -0.257,-0.017 -0.441,-0.137 -0.184,-0.121 -0.267,-0.328 -0.083,-0.208 -0.067,-0.443 0.017,-0.256 0.138,-0.448 0.121,-0.192 0.334,-0.284 0.163,-0.071 0.398,-0.055 0.305,0.02 0.467,0.16 0.164,0.139 0.198,0.368 l -0.333,0.04 q -0.027,-0.123 -0.118,-0.199 -0.09,-0.077 -0.233,-0.086 -0.217,-0.014 -0.354,0.114 -0.137,0.129 -0.155,0.399 -0.019,0.292 0.1,0.447 0.12,0.154 0.33,0.168 0.104,0.007 0.21,-0.026 0.108,-0.034 0.186,-0.087 L 27.521,55.1 Z m 2.591,0.606 -0.36,0.011 -0.155,-0.368 -0.656,0.021 -0.124,0.377 -0.351,0.011 0.587,-1.661 0.35,-0.011 z m -0.63,-0.63 -0.245,-0.602 -0.202,0.616 z m 0.731,-1.03 0.601,-0.076 q 0.203,-0.026 0.314,-0.008 0.149,0.024 0.264,0.119 0.116,0.095 0.189,0.245 0.073,0.149 0.102,0.378 0.025,0.201 -0.006,0.353 -0.039,0.185 -0.138,0.31 -0.075,0.094 -0.215,0.159 -0.105,0.048 -0.287,0.071 l -0.619,0.078 z m 0.364,0.234 0.136,1.079 0.246,-0.031 q 0.138,-0.017 0.197,-0.041 0.078,-0.03 0.124,-0.084 0.047,-0.054 0.067,-0.168 0.019,-0.114 -0.004,-0.303 -0.024,-0.189 -0.07,-0.286 -0.046,-0.097 -0.113,-0.146 -0.067,-0.049 -0.162,-0.058 -0.071,-0.007 -0.272,0.018 z m 3.06,0.83 -0.352,0.077 -0.22,-0.333 -0.641,0.141 -0.052,0.393 -0.343,0.076 0.271,-1.74 0.342,-0.075 z m -0.736,-0.503 -0.352,-0.546 -0.085,0.643 z m 0.535,-1.148 0.316,-0.1 0.268,0.848 q 0.064,0.202 0.094,0.258 0.051,0.09 0.145,0.124 0.095,0.033 0.227,-0.008 0.135,-0.042 0.186,-0.119 0.051,-0.077 0.039,-0.162 -0.011,-0.084 -0.07,-0.27 l -0.274,-0.866 0.316,-0.1 0.26,0.822 q 0.089,0.282 0.1,0.406 0.011,0.124 -0.033,0.226 -0.043,0.102 -0.143,0.186 -0.1,0.083 -0.286,0.142 -0.224,0.071 -0.357,0.056 -0.132,-0.016 -0.225,-0.077 -0.094,-0.062 -0.144,-0.146 -0.073,-0.125 -0.156,-0.387 z m 2.199,1.004 -0.631,-1.515 0.298,-0.124 1.041,0.754 -0.421,-1.012 0.284,-0.118 0.631,1.515 -0.307,0.128 -1.022,-0.734 0.411,0.988 z m 2.33,-1.054 -0.816,-1.424 0.28,-0.16 1.128,0.617 -0.545,-0.951 0.267,-0.153 0.816,1.424 -0.288,0.165 -1.106,-0.6 0.532,0.929 z m 1.818,-1.837 -0.159,-0.226 0.584,-0.411 0.376,0.535 q -0.027,0.142 -0.145,0.32 -0.117,0.176 -0.283,0.292 -0.211,0.148 -0.429,0.17 -0.219,0.021 -0.413,-0.087 -0.195,-0.109 -0.331,-0.303 -0.147,-0.21 -0.174,-0.435 -0.027,-0.225 0.082,-0.431 0.082,-0.158 0.274,-0.293 0.25,-0.176 0.464,-0.169 0.214,0.005 0.385,0.162 l -0.234,0.24 q -0.098,-0.079 -0.217,-0.08 -0.118,-0.003 -0.236,0.079 -0.178,0.125 -0.204,0.312 -0.025,0.186 0.131,0.408 0.168,0.239 0.359,0.284 0.19,0.044 0.362,-0.077 0.085,-0.06 0.147,-0.153 0.062,-0.094 0.09,-0.185 l -0.12,-0.17 z"
       id="path177" />
    <path
       d="m 40.104,50.789 q -0.164,-0.19 -0.218,-0.368 -0.039,-0.132 -0.031,-0.27 0.009,-0.139 0.065,-0.251 0.074,-0.149 0.226,-0.28 0.275,-0.237 0.586,-0.207 0.312,0.028 0.574,0.332 0.259,0.301 0.242,0.613 -0.018,0.311 -0.292,0.546 -0.278,0.239 -0.587,0.211 -0.31,-0.029 -0.565,-0.326 z m 0.252,-0.231 q 0.182,0.211 0.374,0.237 0.191,0.025 0.341,-0.104 0.15,-0.129 0.153,-0.32 0.003,-0.192 -0.183,-0.408 -0.184,-0.214 -0.369,-0.238 -0.184,-0.025 -0.339,0.109 -0.155,0.134 -0.158,0.322 -0.004,0.188 0.181,0.403 z"
       id="path179" />
    <path
       d="m 42.122,50.091 -1.187,-1.133 0.482,-0.505 q 0.182,-0.19 0.296,-0.245 0.114,-0.056 0.246,-0.03 0.131,0.026 0.237,0.127 0.134,0.128 0.146,0.29 0.012,0.161 -0.115,0.339 0.12,-0.035 0.222,-0.033 0.103,10e-4 0.323,0.047 l 0.37,0.076 -0.274,0.287 -0.424,-0.073 q -0.227,-0.04 -0.295,-0.04 -0.069,-10e-4 -0.118,0.025 -0.05,0.025 -0.129,0.108 l -0.046,0.049 0.496,0.473 z m -0.456,-0.894 0.169,-0.177 q 0.165,-0.173 0.191,-0.229 0.026,-0.057 0.014,-0.115 -0.012,-0.058 -0.066,-0.109 -0.06,-0.057 -0.127,-0.06 -0.067,-0.004 -0.133,0.045 -0.032,0.025 -0.171,0.171 l -0.179,0.187 z m 2.584,-1.582 -0.222,0.284 -0.382,-0.117 -0.404,0.517 0.21,0.336 -0.217,0.277 -0.899,-1.515 0.216,-0.276 z m -0.887,0.08 -0.619,-0.197 0.343,0.55 z"
       id="path181" />
  </g>
</svg>
